<svg width="18" height="18" viewBox="0 0 18 18" fill="none" xmlns="http://www.w3.org/2000/svg">
<path d="M17.6415 15.914C18.1188 16.3913 18.1188 17.1652 17.6415 17.6425C17.1642 18.1195 16.3902 18.1197 15.913 17.6425L8.99994 10.7284L2.08588 17.6425C1.60862 18.1196 0.834605 18.1196 0.35736 17.6425C-0.11987 17.1653 -0.11974 16.3913 0.35736 15.914L7.27142 8.99993L0.357361 2.08587C-0.119751 1.60856 -0.119873 0.83459 0.357361 0.357354C0.834602 -0.119802 1.60859 -0.119738 2.08588 0.357354L8.99994 7.27044L15.913 0.357355C16.3902 -0.119852 17.1642 -0.11967 17.6415 0.357355C18.1188 0.834652 18.1188 1.60857 17.6415 2.08587L10.7285 8.99993L17.6415 15.914Z" fill="white"/>
</svg>
