<svg width="64" height="60" viewBox="0 0 64 60" fill="none" xmlns="http://www.w3.org/2000/svg">
<mask id="mask0_2136_1560" style="mask-type:luminance" maskUnits="userSpaceOnUse" x="0" y="18" width="64" height="42">
<mask id="mask1_2136_1560" style="mask-type:luminance" maskUnits="userSpaceOnUse" x="0" y="18" width="64" height="42">
<path d="M30.2534 18.6936L33.177 18.775C33.2933 18.7802 33.4322 18.7992 33.5311 18.7386C33.7082 18.8373 34.0068 18.8062 34.2082 18.8096L35.8714 18.8148C36.769 18.8183 37.1127 18.9101 37.8367 19.4556C38.0659 19.4851 38.5207 19.3915 38.7846 19.3863L46.0902 19.369C47.4773 19.369 48.887 19.2946 50.2603 19.511C54.0329 20.1051 58.0485 23.47 59.1179 27.1918C59.4183 28.0456 59.5884 28.9323 59.762 29.8173L60.328 32.68L63.5502 46.9713C64.1457 49.498 64.2013 51.9677 63.0398 54.3801C60.7273 59.1947 54.4617 61.3751 49.6527 59.0492C48.6735 58.5747 47.795 57.9426 46.9739 57.2325C45.6336 56.0756 38.1544 48.2182 37.5502 48.052C37.3766 48.0035 37.1318 48.0225 36.9495 48.0225H26.9895C26.4652 48.026 26.4061 48.071 26.0016 48.4174L20.4079 53.7428C18.7308 55.4123 17.1075 57.2013 15.0329 58.3946C8.17524 62.3432 -0.512264 57.6914 0.0415558 49.4738C0.147459 47.9134 0.659611 46.334 1.02072 44.8151L3.95649 31.3292C4.19954 30.1065 4.39746 28.8509 4.74815 27.6542C5.35753 24.2875 9.49815 20.6454 12.6718 19.757C14.1145 19.3534 15.6145 19.376 17.0988 19.376L26.3575 19.3933C27.2343 18.3836 29.0607 18.801 30.2534 18.6936Z" fill="white"/>
</mask>
<g mask="url(#mask1_2136_1560)">
<path d="M63.9686 0H0.0102539V59.9913H63.9686V0Z" fill="white"/>
</g>
</mask>
<g mask="url(#mask0_2136_1560)">
<mask id="mask2_2136_1560" style="mask-type:luminance" maskUnits="userSpaceOnUse" x="0" y="18" width="64" height="42">
<path d="M63.9705 18.6902H0.015625V59.9845H63.9705V18.6902Z" fill="white"/>
</mask>
<g mask="url(#mask2_2136_1560)">
<rect width="64" height="41.3234" transform="matrix(1 0 0 -1 0 60)" fill="url(#paint0_linear_2136_1560)"/>
</g>
</g>
<path d="M28.1504 40.1702C28.7285 40.113 29.357 40.1511 29.7181 40.6759L29.7459 40.7157C30.2268 41.4223 29.3119 41.9453 28.7251 42.0025L28.5028 42.0129C28.1105 42.0111 27.5515 41.9973 27.265 41.6873L27.232 41.6492C26.5983 40.9391 27.5358 40.3364 28.1504 40.1702Z" fill="#0C0D14"/>
<path d="M35.6244 40.1305C35.8362 40.1236 36.0636 40.1028 36.2737 40.1426L36.324 40.153C37.8344 40.4371 37.3709 41.8797 36.1383 42.0373C33.9664 42.2572 33.8223 40.4422 35.6244 40.1305Z" fill="#0C0D14"/>
<path d="M52.262 31.8522C55.854 31.6894 56.2412 36.7949 52.5832 37.2365C51.1752 37.2833 50.0728 36.8192 49.7377 35.3315L49.6578 34.9436C49.4512 33.3381 50.7221 32.0254 52.262 31.8522Z" fill="#0C0D14"/>
<path d="M40.9027 31.769C41.1475 31.7482 41.4253 31.7759 41.6649 31.8227L41.7204 31.833C43.1649 32.098 43.9496 33.6931 43.7291 35.056L43.7152 35.134C43.5017 36.516 42.5538 37.1464 41.1875 37.2156C39.0885 37.2 37.5729 35.3955 38.5086 33.4852C38.8142 32.8618 39.2291 32.3284 39.868 32.0184L39.927 31.9906C40.2482 31.8382 40.5538 31.8019 40.9027 31.769Z" fill="#0C0D14"/>
<path d="M46.46 26.0954C48.7794 25.9915 50.1996 28.5148 48.9235 30.5047L48.7898 30.7038C48.2569 31.3706 47.6527 31.6425 46.8194 31.7395C43.0676 31.9127 43.0069 26.802 46.46 26.0954Z" fill="#0C0D14"/>
<path d="M46.4895 36.5836C48.2048 36.5074 49.7795 37.8773 49.5347 39.6871L49.5243 39.765C49.4583 40.269 49.2829 40.7885 48.9548 41.1834L48.9201 41.2232C48.427 41.8173 47.7934 42.0943 47.0468 42.2312C45.7274 42.4476 44.4027 41.4449 44.0538 40.2032L44.0347 40.1339C43.9357 39.7789 43.9236 39.3182 43.9913 38.9545L44.0034 38.8974C44.2222 37.6296 45.2447 36.8053 46.4895 36.5836Z" fill="#0C0D14"/>
<path d="M16.0139 27.8341L16.0191 27.822C16.2552 27.8272 16.4705 27.8584 16.6997 27.8792L16.7552 27.8826C16.9097 27.9848 17.1024 27.99 17.2639 28.0939L17.3194 28.1355C18.8611 29.1019 18.6094 31.3152 18.533 32.8738L21.9757 32.8894C25.2309 33.2358 25.6007 38.653 18.6337 37.5845L18.5747 39.4687C18.5729 39.8913 18.5972 40.4195 18.4635 40.823L18.2604 41.3755C17.9774 42.0163 17.4757 42.3904 16.8299 42.6363C15.4288 43.0017 14.6198 42.4233 13.9757 41.1988C13.7309 40.7347 13.8212 40.0437 13.8212 39.5328L13.8299 37.6243C12.5035 37.5672 10.816 37.8841 9.6632 37.0874C8.58855 36.3445 8.23785 35.0525 9.01737 33.977C10.1649 32.3958 12.2396 33.0834 13.8438 32.815L13.8351 31.09C13.8351 30.6623 13.8142 30.2172 13.9271 29.8015L13.9879 29.5608C14.2431 28.6325 15.0382 27.874 16.0139 27.8341Z" fill="#0C0D14"/>
<defs>
<linearGradient id="paint0_linear_2136_1560" x1="32" y1="0" x2="32" y2="41.3234" gradientUnits="userSpaceOnUse">
<stop offset="0.0576923" stop-color="#323237"/>
<stop offset="1" stop-color="#ABABAD"/>
</linearGradient>
</defs>
</svg>
