<svg width="35" height="30" viewBox="0 0 35 30" fill="none" xmlns="http://www.w3.org/2000/svg">
<path d="M28.5602 16.6892C28.5535 16.6892 28.5468 16.6892 28.5334 16.6892H28.4865C28.2655 16.6755 28.0981 16.4848 28.1115 16.26C28.1249 16.0352 28.1316 15.8104 28.1316 15.6061C28.145 9.44809 23.2299 4.42771 17.1763 4.40727C17.1696 4.40727 17.1562 4.40727 17.1496 4.40727C14.2299 4.40727 11.4844 5.5653 9.40855 7.66337C7.32598 9.76825 6.1742 12.568 6.16751 15.5516C6.16751 15.7627 6.1742 15.9807 6.18759 16.2055C6.20099 16.4303 6.02688 16.621 5.8059 16.6347H5.75903C5.53805 16.6483 5.35055 16.4712 5.33716 16.2464C5.33046 16.1783 5.34385 16.1102 5.37064 16.0557C5.36394 15.8785 5.36394 15.7082 5.36394 15.5448C5.37064 12.35 6.60277 9.3391 8.83936 7.08436C11.0626 4.82961 14.0157 3.58984 17.1496 3.58984C17.1562 3.58984 17.1696 3.58984 17.1763 3.58984C23.6718 3.60347 28.9486 8.99851 28.9285 15.6061C28.9285 15.7696 28.9218 15.9467 28.9151 16.117C28.9419 16.1783 28.9553 16.2396 28.9486 16.3077C28.9419 16.5189 28.7678 16.6892 28.5602 16.6892Z" fill="white"/>
<path d="M31.9552 16.696C31.9485 16.696 31.9418 16.696 31.9351 16.696C31.7142 16.6824 31.5401 16.4917 31.5535 16.2669C31.5668 16.008 31.5735 15.756 31.5735 15.5176C31.5802 11.6075 30.0869 7.91547 27.3682 5.13621C24.6495 2.35695 21.0335 0.817452 17.183 0.81064C17.1696 0.81064 17.1563 0.81064 17.1496 0.81064C13.3192 0.81064 9.70989 2.3297 6.98447 5.08853C4.25235 7.85416 2.73897 11.5326 2.73228 15.4495C2.73228 15.6879 2.73897 15.9399 2.75236 16.1988C2.76576 16.4236 2.59165 16.6143 2.37067 16.6279C2.14969 16.6415 1.96219 16.4644 1.9488 16.2396C1.93541 15.9672 1.92871 15.7015 1.92871 15.4563C1.93541 11.3282 3.53584 7.43864 6.42198 4.51632C9.30811 1.59401 13.1384 -0.00679027 17.1964 2.16508e-05C21.2544 0.00683357 25.0781 1.63488 27.9508 4.57082C30.8235 7.50676 32.3972 11.3964 32.3905 15.5312C32.3905 15.7832 32.3838 16.0489 32.3704 16.3146C32.3436 16.5257 32.1695 16.696 31.9552 16.696Z" fill="white"/>
<path d="M7.0915 22.595L1.76788 22.5813C0.790214 22.5813 -0.00665447 21.7639 4.18975e-05 20.7694L0.00673827 17.6018C0.00673827 17.1182 0.194237 16.6686 0.529055 16.328C0.863874 15.9874 1.30583 15.8035 1.78797 15.8035L7.11159 15.8171C7.33257 15.8171 7.51337 16.001 7.51337 16.2258L7.49998 22.1862C7.49328 22.411 7.31248 22.595 7.0915 22.595ZM1.77458 21.7639L6.69641 21.7775L6.7098 16.6345L1.78797 16.6209C1.52681 16.6209 1.28575 16.7231 1.10494 16.907C0.924141 17.0909 0.816999 17.343 0.816999 17.6018L0.803606 20.7762C0.803606 21.3211 1.23887 21.7639 1.77458 21.7639Z" fill="white"/>
<path d="M32.5042 22.6567L27.1806 22.6431C26.9596 22.6431 26.7788 22.4592 26.7788 22.2344L26.7922 16.274C26.7922 16.165 26.8324 16.0628 26.9127 15.9879C26.9864 15.9129 27.0868 15.8721 27.194 15.8721L32.5176 15.8857C32.993 15.8857 33.435 16.0764 33.7698 16.417C34.1046 16.7576 34.2854 17.214 34.2854 17.6977L34.2787 20.8652C34.2787 21.3489 34.0912 21.7984 33.7564 22.139C33.4216 22.4728 32.9796 22.6567 32.5042 22.6567ZM32.5042 21.8393C32.7654 21.8393 33.0064 21.7371 33.1939 21.5532C33.3747 21.3693 33.4819 21.1172 33.4819 20.8584L33.4886 17.6909C33.4886 17.4252 33.3881 17.18 33.2073 16.9892C33.0265 16.8053 32.7788 16.6963 32.5243 16.6963L27.6025 16.6827L27.5891 21.8257L32.5042 21.8393Z" fill="white"/>
<path d="M24.73 28.5419H20.3171C20.0961 28.5419 19.9153 28.358 19.9153 28.1332C19.9153 27.9084 20.0961 27.7245 20.3171 27.7245H24.73C27.7166 27.7245 30.1473 25.2518 30.1473 22.2136C30.1473 21.9889 30.3281 21.8049 30.5491 21.8049C30.7701 21.8049 30.9509 21.9889 30.9509 22.2136C30.9509 25.7013 28.1652 28.5419 24.73 28.5419Z" fill="white"/>
<path d="M19.3122 30H16.2519C15.4752 30 14.8457 29.3597 14.8457 28.5695V27.6908C14.8457 26.9006 15.4752 26.2603 16.2519 26.2603H19.3122C20.089 26.2603 20.7184 26.9006 20.7184 27.6908V28.5695C20.7184 29.3597 20.089 30 19.3122 30ZM16.2519 27.0845C15.9171 27.0845 15.6493 27.357 15.6493 27.6976V28.5763C15.6493 28.9169 15.9171 29.1894 16.2519 29.1894H19.3122C19.647 29.1894 19.9149 28.9169 19.9149 28.5763V27.6976C19.9149 27.357 19.647 27.0845 19.3122 27.0845H16.2519Z" fill="white"/>
</svg>
