<svg width="32" height="32" viewBox="0 0 32 32" fill="none" xmlns="http://www.w3.org/2000/svg">
<path d="M11.3209 31.6873H4.42591C3.67337 31.6865 2.95186 31.3873 2.41968 30.8552C1.88749 30.3232 1.58809 29.6017 1.58716 28.8492L1.58716 25.375C1.58716 25.2755 1.62667 25.1802 1.69699 25.1098C1.76732 25.0395 1.8627 25 1.96216 25C2.06161 25 2.157 25.0395 2.22732 25.1098C2.29765 25.1802 2.33716 25.2755 2.33716 25.375V28.8492C2.33786 29.4029 2.55817 29.9337 2.94975 30.3251C3.34134 30.7166 3.87221 30.9368 4.42591 30.9373H10.9459V18.9929H4.42591C3.87213 18.9935 3.34121 19.2138 2.94963 19.6054C2.55805 19.997 2.33779 20.5279 2.33716 21.0817V23.4523C2.33716 23.5518 2.29765 23.6471 2.22732 23.7175C2.157 23.7878 2.06161 23.8273 1.96216 23.8273C1.8627 23.8273 1.76732 23.7878 1.69699 23.7175C1.62667 23.6471 1.58716 23.5518 1.58716 23.4523V21.0817C1.58801 20.329 1.88737 19.6075 2.41955 19.0753C2.95174 18.5431 3.67329 18.2438 4.42591 18.2429H11.3209C11.4204 18.2429 11.5157 18.2824 11.5861 18.3528C11.6564 18.4231 11.6959 18.5185 11.6959 18.6179V31.3123C11.6959 31.3615 11.6862 31.4103 11.6674 31.4558C11.6485 31.5013 11.6209 31.5426 11.5861 31.5775C11.5512 31.6123 11.5099 31.6399 11.4644 31.6588C11.4189 31.6776 11.3701 31.6873 11.3209 31.6873Z" fill="white"/>
<path d="M20.6793 31.6876H11.3208C11.2213 31.6876 11.126 31.6481 11.0556 31.5778C10.9853 31.5074 10.9458 31.412 10.9458 31.3126V15.4902C10.9466 14.7376 11.246 14.0161 11.7781 13.484C12.3103 12.9518 13.0318 12.6525 13.7844 12.6516H18.2157C18.9683 12.6525 19.6898 12.9518 20.222 13.484C20.7541 14.0161 21.0535 14.7376 21.0543 15.4902V31.3126C21.0543 31.412 21.0148 31.5074 20.9445 31.5778C20.8742 31.6481 20.7788 31.6876 20.6793 31.6876ZM11.6958 30.9376H20.3043V15.4902C20.3037 14.9365 20.0834 14.4056 19.6919 14.014C19.3004 13.6225 18.7695 13.4022 18.2157 13.4016H13.7844C13.2306 13.4022 12.6998 13.6225 12.3082 14.014C11.9167 14.4056 11.6964 14.9365 11.6958 15.4902V30.9376Z" fill="white"/>
<path d="M27.5742 31.6874H20.6792C20.5797 31.6874 20.4844 31.6479 20.414 31.5776C20.3437 31.5072 20.3042 31.4119 20.3042 31.3124V22.1694C20.3042 22.07 20.3437 21.9746 20.414 21.9043C20.4844 21.8339 20.5797 21.7944 20.6792 21.7944H27.5742C28.3267 21.7953 29.0482 22.0946 29.5804 22.6268C30.1125 23.1589 30.4119 23.8804 30.4127 24.633V28.8488C30.4119 29.6014 30.1126 30.3229 29.5804 30.8551C29.0483 31.3872 28.3267 31.6866 27.5742 31.6874ZM21.0542 30.9374H27.5742C28.1279 30.9368 28.6588 30.7165 29.0503 30.325C29.4419 29.9334 29.6621 29.4025 29.6627 28.8488V24.633C29.6621 24.0793 29.4419 23.5484 29.0503 23.1569C28.6588 22.7653 28.1279 22.5451 27.5742 22.5445H21.0542V30.9374Z" fill="white"/>
<path d="M18.1423 9.74935C17.842 9.74817 17.5498 9.65145 17.3081 9.4732L16.3935 8.80868C16.2792 8.72535 16.1415 8.68046 16.0001 8.68046C15.8587 8.68046 15.7209 8.72535 15.6067 8.80868L14.692 9.4732C14.4496 9.64937 14.1575 9.74426 13.8578 9.74427C13.5581 9.74427 13.2661 9.64939 13.0236 9.47322C12.7811 9.29704 12.6006 9.04863 12.508 8.76357C12.4154 8.47852 12.4154 8.17146 12.508 7.88641L12.8574 6.81118C12.9013 6.67678 12.9014 6.5319 12.8577 6.39743C12.8141 6.26295 12.7288 6.14582 12.6142 6.06292L11.6996 5.39837C11.4571 5.2222 11.2766 4.97379 11.184 4.68873C11.0913 4.40367 11.0913 4.09661 11.184 3.81156C11.2766 3.5265 11.4571 3.27808 11.6996 3.10191C11.9421 2.92574 12.2341 2.83086 12.5338 2.83087H13.6644C13.8058 2.83113 13.9436 2.78648 14.058 2.70337C14.1724 2.62025 14.2574 2.50297 14.3009 2.36841L14.6503 1.29318C14.7429 1.00813 14.9234 0.75972 15.1659 0.583552C15.4083 0.407383 15.7004 0.3125 16.0001 0.3125C16.2998 0.3125 16.5918 0.407383 16.8343 0.583552C17.0768 0.75972 17.2573 1.00813 17.3499 1.29318L17.6993 2.36841C17.7427 2.50297 17.8278 2.62025 17.9422 2.70337C18.0566 2.78648 18.1944 2.83113 18.3358 2.83087H19.4663C19.766 2.83086 20.0581 2.92574 20.3006 3.10191C20.5431 3.27808 20.7235 3.5265 20.8162 3.81156C20.9088 4.09661 20.9088 4.40368 20.8162 4.68873C20.7235 4.97379 20.543 5.2222 20.3005 5.39837L19.3859 6.06292C19.2714 6.14582 19.1861 6.26295 19.1424 6.39743C19.0987 6.5319 19.0989 6.67678 19.1428 6.81118L19.4922 7.88641C19.5882 8.17119 19.5899 8.47934 19.497 8.76516C19.4041 9.05098 19.2216 9.29927 18.9765 9.47323C18.7348 9.65145 18.4427 9.74815 18.1423 9.74935ZM16.0001 7.93001C16.2999 7.93009 16.592 8.0253 16.8343 8.20193L17.7489 8.86645C17.8633 8.94952 18.001 8.99426 18.1423 8.99425C18.2837 8.99425 18.4214 8.9495 18.5357 8.86642C18.6501 8.78334 18.7352 8.66619 18.7788 8.53177C18.8225 8.39735 18.8225 8.25256 18.7788 8.11814L18.4294 7.04291C18.3363 6.7579 18.336 6.45068 18.4287 6.16551C18.5213 5.88034 18.7021 5.63196 18.9451 5.45617L19.8597 4.79162C19.974 4.70855 20.0592 4.59141 20.1028 4.45699C20.1465 4.32257 20.1465 4.17777 20.1028 4.04335C20.0592 3.90893 19.9741 3.79179 19.8597 3.70871C19.7454 3.62563 19.6077 3.58089 19.4663 3.5809H18.3358C18.0359 3.58144 17.7436 3.48677 17.501 3.31051C17.2584 3.13426 17.0781 2.88553 16.9859 2.60018L16.6366 1.52495C16.5929 1.39054 16.5078 1.2734 16.3934 1.19034C16.2791 1.10727 16.1414 1.06253 16.0001 1.06253C15.8587 1.06253 15.721 1.10727 15.6067 1.19034C15.4923 1.2734 15.4072 1.39054 15.3635 1.52495L15.0142 2.60018C14.922 2.88553 14.7417 3.13426 14.4991 3.31051C14.2565 3.48677 13.9642 3.58144 13.6643 3.5809H12.5338C12.3925 3.58089 12.2548 3.62564 12.1404 3.70871C12.0261 3.79179 11.941 3.90893 11.8973 4.04335C11.8536 4.17777 11.8536 4.32256 11.8973 4.45698C11.941 4.5914 12.0261 4.70854 12.1404 4.79162L13.0551 5.45617C13.298 5.63196 13.4788 5.88035 13.5715 6.16552C13.6641 6.4507 13.6638 6.75793 13.5706 7.04293L13.2213 8.11814C13.1776 8.25256 13.1776 8.39736 13.2213 8.53177C13.265 8.66619 13.3501 8.78334 13.4644 8.86641C13.5788 8.94949 13.7165 8.99424 13.8578 8.99424C13.9992 8.99424 14.1369 8.9495 14.2512 8.86643L15.1659 8.20191C15.4082 8.02531 15.7002 7.93012 16.0001 7.93001Z" fill="white"/>
</svg>
