<?xml version="1.0" encoding="utf-8"?>
<!-- Generator: Adobe Illustrator 24.1.2, SVG Export Plug-In . SVG Version: 6.00 Build 0)  -->
<svg version="1.1" id="Слой_1" xmlns="http://www.w3.org/2000/svg" xmlns:xlink="http://www.w3.org/1999/xlink" x="0px" y="0px"
	 viewBox="0 0 510 510" style="enable-background:new 0 0 510 510;" xml:space="preserve">
<style type="text/css">
	.st0{display:none;}
	.st1{display:inline;}
	.st2{fill:#272727;}
	.st3{fill:none;stroke:url(#SVGID_1_);stroke-width:6;stroke-miterlimit:10;}
	.st4{fill:none;stroke:#1A1A1A;stroke-miterlimit:10;}
	.st5{fill:#3D3D3D;}
	.st6{fill:none;stroke:#1A1A1A;stroke-width:3;stroke-miterlimit:10;}
	.st7{display:none;stroke:#FFFFFF;stroke-miterlimit:10;}
	.st8{fill:#FFFFFF;stroke:#FFFFFF;stroke-miterlimit:10;}
	.st9{fill:#020202;}
</style>
<g id="Слой_2_1_" class="st0">
	<g class="st1">
		<circle class="st2" cx="255" cy="255" r="253.5"/>
		
			<radialGradient id="SVGID_1_" cx="255" cy="255.68" r="200.9" gradientTransform="matrix(1 0 0 -1 0 512)" gradientUnits="userSpaceOnUse">
			<stop  offset="0.97" style="stop-color:#000000"/>
			<stop  offset="1" style="stop-color:#1C0000"/>
		</radialGradient>
		<circle class="st3" cx="255" cy="256.3" r="197.9"/>
		<circle class="st4" cx="255" cy="255.7" r="195.3"/>
		<path class="st5" d="M123.3,50.5c-22,12.9-42.7,29-62.2,47.6c-23.4,22.1-40.3,50.8-49.8,87C-0.3,226.8-2.2,270,8.7,315.2
			c5.6,22.3,18.1,43.6,37.8,63.6c-15.7-27.1-25.3-54.1-27.8-80.8c-5.8-42.8-1.2-86.4,13.3-127.1C46.3,119.8,79.4,81.5,123.3,50.5z"
			/>
		<path class="st5" d="M75.6,99.5c20.5-22.3,42.4-41.8,66.1-57.8c14.9-10,31.2-17.6,48.4-22.6C242.5,4.1,295.3,5.9,348.7,28
			c48.2,26,84.9,59.9,108.1,103.3C426,86.6,390,53.5,345.7,38.6c-59.3-21.2-118-22.7-176.1-1.3C136.5,50.8,105.6,73,75.6,99.5z"/>
		<path class="st5" d="M174.9,67.7C123.1,92,86.1,128.7,65,178.9c-6.7,18.3-10.7,37.5-11.9,56.9C60.4,167,97.6,109.7,174.9,67.7z"/>
		<path class="st5" d="M161.7,83.6c-39.4,20.3-68.1,50.7-86,91.2C95.7,135.2,123.7,104.1,161.7,83.6z"/>
		<path class="st5" d="M75.6,374.8c49.3,67.3,112.9,99.1,190.6,95.3c60.3-5,112-28.1,152.2-75.5c-51.3,46.8-108.2,70.6-171.4,68.4
			C180.5,461,123.3,431.8,75.6,374.8z"/>
		<path class="st5" d="M118,406.6c79.5,65.1,164.4,71.5,254.9,16C288.3,471.6,203.4,472,118,406.6z"/>
		<path class="st5" d="M108.7,385.4c81.7,79.5,169.9,86.3,264.1,25.4C279.1,470,191.1,461.6,108.7,385.4z"/>
		<path class="st5" d="M231.8,54.5c93-8.3,163.4,30.8,209.2,121.8C398,88,330.2,44.1,231.8,54.5z"/>
		<path class="st5" d="M429.1,168.3c36.9,82.5,19.8,150.9-25.2,211.8C455.9,314.3,464.3,243.7,429.1,168.3z"/>
		<path class="st5" d="M389.4,414.5c72.7-79.2,89.1-166.5,49-262.1C486.7,246.9,474.1,334.7,389.4,414.5z"/>
		<circle class="st6" cx="255" cy="255" r="253.5"/>
	</g>
</g>
<g id="Слой_2" class="st0">
</g>
<rect x="-41" y="-38" class="st7" width="619.5" height="619.5"/>
<circle cx="252.7" cy="242.8" r="216.3"/>
<g id="Слой_9">
	<g>
		<path class="st8" d="M272.7,385.8L379.5,194c15.2-27.2-4.5-60.7-35.7-60.7H161.7c-31.5,0-51.1,34.1-35.3,61.4l111,191.4
			c5.6,9.7,18,13,27.7,7.4C268.3,391.7,270.9,389,272.7,385.8z"/>
		<path class="st9" d="M241.2,163.6l-83-0.2c-3.7,0-6.8,3-6.8,6.7c0,1.2,0.3,2.4,0.9,3.4l88.8,153.8L241.2,163.6z"/>
		<path class="st9" d="M267.3,163.3l83-0.2c3.7,0,6.8,3,6.8,6.8c0,1.2-0.3,2.4-0.9,3.4l-88.9,153.8V163.3z"/>
	</g>
</g>
</svg>
