<svg width="18" height="18" viewBox="0 0 18 18" fill="none" xmlns="http://www.w3.org/2000/svg">
<g clip-path="url(#clip0_4078_556)">
<path d="M0.5625 9C0.5625 10.6594 1.04062 12.2063 1.85625 13.5H16.1156C16.9312 12.2063 17.4094 10.6594 17.4094 9C17.4094 7.34062 16.9312 5.79375 16.1156 4.5H1.85625C1.04062 5.79375 0.5625 7.34062 0.5625 9Z" fill="#FFCE31"/>
<path d="M16.1439 4.5C14.6533 2.1375 12.0096 0.5625 9.0002 0.5625C5.99082 0.5625 3.34707 2.1375 1.85645 4.5H16.1439ZM1.85645 13.5C3.34707 15.8625 5.99082 17.4375 9.0002 17.4375C12.0096 17.4375 14.6533 15.8625 16.1439 13.5H1.85645Z" fill="#ED4C5C"/>
<path d="M2.58789 8.07178H3.48789V8.57803H2.58789V8.07178ZM2.58789 11.7843H3.51602V12.2624H2.58789V11.7843Z" fill="#C8B100"/>
<path d="M2.50293 10.9971C2.41855 11.0533 2.3623 11.1096 2.3623 11.1377C2.3623 11.1658 2.39043 11.1939 2.44668 11.2221C2.50293 11.2502 2.55918 11.3064 2.53105 11.3627C2.5873 11.3064 2.61543 11.2502 2.61543 11.1939C2.61543 11.1096 2.55918 11.0252 2.50293 10.9971Z" fill="#ED4C5C"/>
<path d="M2.72852 8.57812H3.37539V11.7844H2.72852V8.57812Z" fill="white"/>
<path d="M4.04969 9.75938C3.90906 9.70313 3.65594 9.64687 3.37469 9.64687C3.29031 9.64687 3.17781 9.64688 3.06531 9.675C2.67156 9.73125 2.36219 9.9 2.39031 10.0125L2.24969 9.70312C2.22156 9.5625 2.55906 9.39375 2.98094 9.30937C3.12156 9.28125 3.26219 9.28125 3.37469 9.28125C3.65594 9.28125 3.90906 9.30937 4.04969 9.36562V9.75938Z" fill="#ED4C5C"/>
<path d="M2.72734 10.1813C2.55859 10.1813 2.41797 10.125 2.41797 10.0406C2.41797 9.98438 2.47422 9.9 2.58672 9.84375H2.75547L2.72734 10.1813ZM3.37422 9.92812C3.48672 9.95625 3.57109 9.98437 3.62734 10.0125C3.65547 10.0406 3.54297 10.1531 3.37422 10.2375V9.92812Z" fill="#ED4C5C"/>
<path d="M2.30639 10.8002C2.27827 10.7439 2.47514 10.6314 2.72827 10.5471C2.84077 10.5189 2.92514 10.4627 3.06577 10.4064C3.40327 10.2658 3.68452 10.0689 3.62827 10.0127L3.68452 10.3502C3.71264 10.4064 3.48764 10.5752 3.15014 10.7439C3.03764 10.8002 2.84077 10.8846 2.72827 10.9127C2.53139 10.9689 2.36264 11.0814 2.36264 11.1096L2.30639 10.8002Z" fill="#ED4C5C"/>
<path d="M8.63457 8.07178H9.53457V8.57803H8.63457V8.07178ZM8.60645 11.7843H9.53457V12.2624H8.60645V11.7843Z" fill="#C8B100"/>
<path d="M9.61836 10.9971C9.70273 11.0533 9.75898 11.1096 9.75898 11.1377C9.75898 11.1658 9.73086 11.1939 9.67461 11.2221C9.61836 11.2783 9.56211 11.3627 9.59023 11.3908C9.53398 11.3346 9.50586 11.2783 9.50586 11.2221C9.50586 11.1096 9.56211 11.0252 9.61836 10.9971Z" fill="#ED4C5C"/>
<path d="M8.74707 8.57812H9.39395V11.7844H8.74707V8.57812Z" fill="white"/>
<path d="M8.07129 9.75938C8.21191 9.70313 8.46504 9.64687 8.74629 9.64687C8.83066 9.64687 8.94316 9.64688 9.05566 9.675C9.44941 9.73125 9.75879 9.9 9.73066 10.0125L9.87129 9.675C9.89941 9.53438 9.56191 9.36563 9.14004 9.28125H8.74629C8.46504 9.28125 8.21191 9.30937 8.07129 9.36562V9.75938Z" fill="#ED4C5C"/>
<path d="M9.39357 10.1813C9.56232 10.1813 9.70294 10.125 9.70294 10.0406C9.70294 9.98438 9.64669 9.9 9.53419 9.84375H9.36544L9.39357 10.1813ZM8.74669 9.92812C8.63419 9.95625 8.54981 9.98437 8.49356 10.0125C8.46544 10.0406 8.57794 10.1531 8.74669 10.2375V9.92812Z" fill="#ED4C5C"/>
<path d="M9.81524 10.8001C9.84336 10.7438 9.64649 10.6313 9.39336 10.547C9.28086 10.5188 9.19648 10.4626 9.05586 10.4063C8.71836 10.2657 8.43711 10.0688 8.49336 10.0126L8.43711 10.3501C8.40898 10.4063 8.63398 10.5751 8.97148 10.7438C9.08398 10.8001 9.28086 10.8845 9.39336 10.9126C9.59024 10.9688 9.75898 11.1095 9.73086 11.1376L9.81524 10.8001ZM6.04648 6.27197C6.58086 6.27197 7.67773 6.38447 8.07148 6.77822C7.64961 7.79072 6.97461 7.36885 6.04648 7.36885C5.14648 7.36885 4.44336 7.79072 4.02148 6.77822C4.41523 6.38447 5.48398 6.27197 6.04648 6.27197Z" fill="#ED4C5C"/>
<path d="M7.42461 7.39687C7.08711 7.2 6.58086 7.17188 6.04648 7.17188C5.51211 7.17188 5.00586 7.22812 4.66836 7.39687L4.78086 7.875C5.09023 7.95938 5.54023 8.01562 6.04648 8.01562C6.55273 8.01562 6.97461 7.95938 7.31211 7.875L7.42461 7.39687ZM7.90273 6.1875C7.79023 6.10312 7.56523 6.01875 7.36836 6.01875C7.28398 6.01875 7.19961 6.01875 7.11523 6.04688C7.11523 6.04688 6.94648 5.82188 6.55273 5.82188C6.41211 5.82188 6.29961 5.85 6.18711 5.90625V5.87812C6.15898 5.82187 6.10273 5.76562 6.04648 5.76562C5.99023 5.76562 5.90586 5.85 5.90586 5.90625V5.93438C5.79336 5.87813 5.68086 5.85 5.54023 5.85C5.14648 5.85 4.97773 6.10313 4.97773 6.075C4.89336 6.04688 4.80898 6.04688 4.72461 6.04688C3.43086 6.04688 4.07773 6.91875 4.07773 6.91875L4.21836 6.75C3.90898 6.35625 4.19023 6.13125 4.75273 6.13125C4.83711 6.13125 4.89336 6.13125 4.94961 6.15937C4.75273 6.44062 5.11836 6.69375 5.11836 6.69375L5.20273 6.55312C5.00586 6.4125 4.97773 5.93438 5.54023 5.93438C5.68086 5.93438 5.79336 5.9625 5.90586 6.04688C5.90586 6.075 5.87773 6.46875 5.84961 6.525L6.07461 6.72187L6.29961 6.525C6.27148 6.44063 6.24336 6.075 6.24336 6.04688C6.32773 5.99062 6.46836 5.93438 6.60898 5.93438C7.19961 5.93438 7.19961 6.4125 6.94648 6.55312L7.03086 6.69375C7.03086 6.69375 7.34023 6.44062 7.19961 6.15937C7.25586 6.15937 7.34023 6.13125 7.39648 6.13125C8.07148 6.13125 8.09961 6.6375 7.93086 6.75L8.04336 6.91875C7.98711 6.91875 8.29648 6.525 7.90273 6.1875Z" fill="#C8B100"/>
<path d="M5.87793 5.65313C5.87793 5.56875 5.9623 5.48438 6.04668 5.48438C6.15918 5.48438 6.21543 5.56875 6.21543 5.65313C6.21543 5.7375 6.13105 5.82188 6.04668 5.82188C5.9623 5.82188 5.87793 5.7375 5.87793 5.65313Z" fill="#005BBF"/>
<path d="M5.99043 5.1748V5.25918H5.90605V5.34355H5.99043V5.6248H5.87793V5.70918H6.21543L6.24356 5.65293L6.21543 5.6248H6.10293V5.34355H6.1873V5.25918H6.10293V5.1748H5.99043Z" fill="#C8B100"/>
<path d="M6.04668 7.95947C5.59668 7.95947 5.20293 7.90322 4.89355 7.81885C5.20293 7.73447 5.59668 7.67822 6.04668 7.67822C6.49668 7.67822 6.89043 7.73447 7.1998 7.81885C6.91855 7.90322 6.49668 7.95947 6.04668 7.95947Z" fill="#ED4C5C"/>
<path d="M6.0748 12.8252C5.54043 12.8252 5.03418 12.6846 4.58418 12.4877C4.24668 12.3189 4.0498 12.0096 4.0498 11.6439V10.2939H8.0998V11.6439C8.0998 12.0096 7.8748 12.3471 7.56543 12.4877C7.11543 12.7127 6.60918 12.8252 6.0748 12.8252ZM6.04668 8.04395H8.07168V10.2939H6.04668V8.04395Z" fill="white"/>
<path d="M6.0748 11.6439C6.0748 12.1783 5.6248 12.6002 5.0623 12.6002C4.4998 12.6002 4.0498 12.1783 4.0498 11.6439V10.2939H6.0748V11.6439Z" fill="#ED4C5C"/>
<path d="M4.47148 12.4311C4.52773 12.4592 4.61211 12.5154 4.72461 12.5436V10.2373H4.49961L4.47148 12.4311ZM4.02148 11.6154C4.02148 11.8967 4.13398 12.1217 4.24648 12.2342V10.2373H4.02148V11.6154Z" fill="#C8B100"/>
<path d="M4.92188 12.5998H5.14687V10.2373H4.92188V12.5998Z" fill="#C7B500"/>
<path d="M5.37207 12.5436C5.45645 12.5154 5.56895 12.4592 5.6252 12.4311V10.2373H5.4002L5.37207 12.5436Z" fill="#C8B100"/>
<path d="M4.02148 8.04395H6.04648V10.2939H4.02148V8.04395Z" fill="#ED4C5C"/>
<path d="M5.84961 12.2344C5.96211 12.15 6.04648 11.9531 6.07461 11.7281V10.2656H5.84961V12.2344Z" fill="#C8B100"/>
<path d="M8.0998 10.2936V11.6436C8.0998 12.178 7.64981 12.5999 7.08731 12.5999C6.52481 12.5999 6.0748 12.178 6.0748 11.6436V10.2936H8.0998ZM7.36856 8.43738C7.45293 8.60613 7.45293 9.028 7.1998 8.94363C7.25605 8.97175 7.28418 9.16863 7.36856 9.28113C7.50918 9.44988 7.67793 9.30925 7.64981 9.11238C7.59356 8.803 7.62168 8.60613 7.67793 8.29675C7.67793 8.32488 7.81855 8.32488 7.8748 8.26863C7.84668 8.353 7.81855 8.4655 7.8748 8.4655C7.81855 8.54988 7.67793 8.6905 7.64981 8.77488C7.62168 8.97175 7.93105 9.33738 7.59355 9.42175C7.36855 9.478 7.50918 9.64675 7.59355 9.73113C7.59355 9.73113 7.48105 10.0968 7.5373 10.0686C7.3123 10.153 7.36856 9.95613 7.36856 9.95613C7.48106 9.61863 7.17168 9.5905 7.1998 9.53425C6.91855 9.50613 7.22793 9.78738 6.9748 9.78738C6.91855 9.78738 6.80606 9.84363 6.80606 9.84363C6.49668 9.8155 6.66543 9.53425 6.77793 9.56238C6.8623 9.5905 6.94668 9.73113 6.94668 9.53425C6.94668 9.53425 6.80605 9.30925 7.17168 9.30925C7.03105 9.30925 6.94668 9.19675 6.89043 9.05613C6.83418 9.08425 6.7498 9.22488 6.44043 9.253C6.44043 9.253 6.35605 8.94363 6.44043 8.99988C6.55293 9.05613 6.60918 9.05613 6.72168 8.94363C6.66543 8.85925 6.32793 8.74675 6.38418 8.54988C6.38418 8.49363 6.55293 8.40925 6.55293 8.40925C6.5248 8.54988 6.60918 8.6905 6.77793 8.6905C7.00293 8.71863 6.91856 8.63425 6.94668 8.578C6.97481 8.52175 7.14356 8.60613 7.08731 8.4655C7.08731 8.43738 6.89043 8.40925 6.94668 8.32488C7.05918 8.18425 7.22793 8.29675 7.36856 8.43738ZM6.0748 12.5436L6.01855 12.403L6.0748 12.2343L6.13105 12.403L6.0748 12.5436Z" fill="#ED4C5C"/>
<path d="M4.64043 8.52187V8.6625H4.69668V8.775H4.55606V9.05625H4.64043V9.675H4.47168V9.98438H5.6248V9.675H5.48418V9.05625H5.54043V8.775H5.39981V8.6625H5.48418V8.52187H5.20293V8.6625H5.25918V8.775H5.11856V8.4375H5.20293V8.29688H4.89355V8.4375H4.97793V8.775H4.83731V8.6625H4.89355V8.52187H4.64043ZM7.81855 11.9812V10.575H6.35605V11.9812L7.03105 12.2906H7.11543L7.81855 11.9812ZM7.03105 10.6875V11.1656L6.55293 10.6875H7.03105ZM6.44043 10.7156L7.00293 11.2781L6.44043 11.8406V10.7156ZM6.49668 11.9531L7.03105 11.4187V12.2063L6.49668 11.9531ZM7.11543 12.1781V11.3906L7.64981 11.925L7.11543 12.1781ZM7.70605 11.8406L7.14355 11.2781L7.70605 10.7156V11.8406ZM7.11543 10.6875H7.59355L7.11543 11.1656V10.6875Z" fill="#C8B100"/>
<path d="M5.40039 10.2654C5.40039 9.84355 5.68164 9.53418 6.04727 9.53418C6.41289 9.53418 6.69414 9.87168 6.69414 10.2654C6.69414 10.6592 6.41289 10.9967 6.04727 10.9967C5.68164 10.9967 5.40039 10.6873 5.40039 10.2654Z" fill="#ED4C5C"/>
<path d="M5.59668 10.2658C5.59668 9.95645 5.79355 9.73145 6.04668 9.73145C6.2998 9.73145 6.49668 9.98457 6.49668 10.2658C6.49668 10.5752 6.2998 10.8002 6.04668 10.8002C5.82168 10.8283 5.59668 10.5752 5.59668 10.2658Z" fill="#005BBF"/>
<path d="M5.8498 9.8999L5.7373 10.2093L5.82168 10.2374L5.76543 10.3499H5.93418L5.87793 10.2374L5.96231 10.2093L5.8498 9.8999ZM6.27168 9.8999L6.15918 10.2093L6.24356 10.2374L6.1873 10.3499H6.35605L6.32793 10.2374L6.4123 10.2093L6.27168 9.8999ZM6.0748 10.2655L5.93418 10.5749L6.01855 10.603L5.99043 10.7155H6.13105L6.10293 10.603L6.1873 10.5749L6.0748 10.2655Z" fill="#C8B100"/>
</g>
<defs>
<clipPath id="clip0_4078_556">
<rect width="18" height="18" fill="white"/>
</clipPath>
</defs>
</svg>
