<svg width="29" height="28" viewBox="0 0 29 28" fill="none" xmlns="http://www.w3.org/2000/svg">
<g clip-path="url(#clip0_2132_308)">
<g clip-path="url(#clip1_2132_308)">
<path d="M14.8396 28C11.1829 28 7.76129 26.6157 5.12323 24.0821C4.60084 23.5858 4.33965 22.9328 4.8098 22.5149C5.30606 22.0448 6.01129 22.4627 6.53368 22.959C8.67547 25.0224 12.1232 26.3545 15.1008 26.3545C21.4217 26.3545 27.2725 20.347 27.2725 14.0261C27.2725 7.70522 21.4479 1.64552 15.127 1.64552C11.8882 1.64552 8.20532 3.16045 6.03741 5.58955C5.56726 6.11194 4.78368 6.58209 4.31353 6.16418C3.81726 5.74627 3.97397 5.14552 4.44412 4.62314C7.1083 1.67164 10.8956 0 14.8658 0C22.5971 0 28.8919 6.29478 28.8919 14.0261C28.8658 21.7313 22.571 28 14.8396 28Z" fill="white"/>
</g>
<path d="M8.6353 10.5L10.9302 12.8868C11.5233 13.5036 11.5233 14.5006 10.9302 15.1132L8.6353 17.5M11.373 14.0021H1.75" stroke="white" stroke-width="1.5" stroke-miterlimit="10" stroke-linecap="round" stroke-linejoin="round"/>
</g>
<defs>
<clipPath id="clip0_2132_308">
<rect width="28" height="28" fill="white" transform="translate(1)"/>
</clipPath>
<clipPath id="clip1_2132_308">
<rect width="24.8918" height="28" fill="white" transform="translate(4)"/>
</clipPath>
</defs>
</svg>
