<svg width="28" height="28" viewBox="0 0 28 28" fill="none" xmlns="http://www.w3.org/2000/svg">
<g clip-path="url(#clip0_2137_2110)">
<g clip-path="url(#clip1_2137_2110)">
<path d="M13.8394 28C10.1827 28 6.76104 26.6157 4.12298 24.0821C3.6006 23.5858 3.3394 22.9328 3.80955 22.5149C4.30582 22.0448 5.01104 22.4627 5.53343 22.959C7.67522 25.0224 11.123 26.3545 14.1006 26.3545C20.4215 26.3545 26.2722 20.347 26.2722 14.0261C26.2722 7.70522 20.4476 1.64552 14.1267 1.64552C10.8879 1.64552 7.20507 3.16045 5.03716 5.58955C4.56701 6.11194 3.78343 6.58209 3.31328 6.16418C2.81701 5.74627 2.97373 5.14552 3.44388 4.62314C6.10806 1.67164 9.89537 0 13.8655 0C21.5969 0 27.8916 6.29478 27.8916 14.0261C27.8655 21.7313 21.5707 28 13.8394 28Z" fill="white"/>
</g>
<path d="M3.6147 10.3906L1.31977 12.8521C0.726744 13.4881 0.726744 14.5162 1.31977 15.1479L3.6147 17.6094M0.877032 14.0022H10.5" stroke="white" stroke-width="1.5" stroke-miterlimit="10" stroke-linecap="round" stroke-linejoin="round"/>
</g>
<defs>
<clipPath id="clip0_2137_2110">
<rect width="28" height="28" fill="white"/>
</clipPath>
<clipPath id="clip1_2137_2110">
<rect width="24.8918" height="28" fill="white" transform="translate(3)"/>
</clipPath>
</defs>
</svg>
