<svg width="24" height="25" viewBox="0 0 24 25" fill="none" xmlns="http://www.w3.org/2000/svg">
<path d="M11.7553 2.99897C14.8712 2.99897 15.2961 2.99897 16.5708 2.99897C17.7038 2.99897 18.2703 3.28223 18.6952 3.42386C19.2617 3.70712 19.6866 3.84875 20.1115 4.27364C20.5364 4.69853 20.8197 5.12342 20.9613 5.68995C21.1029 6.11484 21.2446 6.68136 21.3862 7.8144C21.3862 9.08907 21.3862 9.37233 21.3862 12.6298C21.3862 15.8873 21.3862 16.1706 21.3862 17.4453C21.3862 18.5783 21.1029 19.1448 20.9613 19.5697C20.678 20.1362 20.5364 20.5611 20.1115 20.986C19.6866 21.4109 19.2617 21.6942 18.6952 21.8358C18.2703 21.9774 17.7038 22.1191 16.5708 22.2607C15.2961 22.2607 15.0128 22.2607 11.7553 22.2607C8.49782 22.2607 8.21456 22.2607 6.93989 22.2607C5.80685 22.2607 5.24032 21.9774 4.81543 21.8358C4.24891 21.5525 3.82402 21.4109 3.39913 20.986C2.97424 20.5611 2.69098 20.1362 2.54935 19.5697C2.40772 19.1448 2.26609 18.5783 2.12446 17.4453C2.12446 16.1706 2.12446 15.8873 2.12446 12.6298C2.12446 9.37233 2.12446 9.08907 2.12446 7.8144C2.12446 6.68136 2.40772 6.11484 2.54935 5.68995C2.83261 5.12342 2.97424 4.69853 3.39913 4.27364C3.82402 3.84875 4.24891 3.56549 4.81543 3.42386C5.24032 3.28223 5.80685 3.1406 6.93989 2.99897C8.21456 2.99897 8.63945 2.99897 11.7553 2.99897ZM11.7553 0.874512C8.49782 0.874512 8.21456 0.874512 6.93989 0.874512C5.66522 0.874512 4.81543 1.15777 4.10728 1.44103C3.39913 1.72429 2.69098 2.14919 1.98283 2.85734C1.27467 3.56549 0.991413 4.13201 0.566522 4.98179C0.283262 5.68995 0.14163 6.53973 0 7.8144C0 9.08907 0 9.51397 0 12.6298C0 15.8873 0 16.1706 0 17.4453C0 18.7199 0.283262 19.5697 0.566522 20.2779C0.849783 20.986 1.27467 21.6942 1.98283 22.4023C2.69098 23.1105 3.2575 23.3937 4.10728 23.8186C4.81543 24.1019 5.66522 24.2435 6.93989 24.3852C8.21456 24.3852 8.63945 24.3852 11.7553 24.3852C14.8712 24.3852 15.2961 24.3852 16.5708 24.3852C17.8454 24.3852 18.6952 24.1019 19.4034 23.8186C20.1115 23.5354 20.8197 23.1105 21.5278 22.4023C22.236 21.6942 22.5192 21.1277 22.9441 20.2779C23.2274 19.5697 23.369 18.7199 23.5106 17.4453C23.5106 16.1706 23.5106 15.7457 23.5106 12.6298C23.5106 9.51397 23.5106 9.08907 23.5106 7.8144C23.5106 6.53973 23.2274 5.68995 22.9441 4.98179C22.6609 4.27364 22.236 3.56549 21.5278 2.85734C20.8197 2.14919 20.2531 1.86593 19.4034 1.44103C18.6952 1.15777 17.8454 1.01614 16.5708 0.874512C15.2961 0.874512 15.0128 0.874512 11.7553 0.874512Z" fill="white"/>
<path d="M11.7553 6.53973C8.35619 6.53973 5.66522 9.2307 5.66522 12.6298C5.66522 16.029 8.35619 18.7199 11.7553 18.7199C15.1545 18.7199 17.8454 16.029 17.8454 12.6298C17.8454 9.2307 15.1545 6.53973 11.7553 6.53973ZM11.7553 16.5955C9.63087 16.5955 7.78967 14.8959 7.78967 12.6298C7.78967 10.5054 9.48924 8.66418 11.7553 8.66418C13.8798 8.66418 15.721 10.3637 15.721 12.6298C15.721 14.7543 13.8798 16.5955 11.7553 16.5955Z" fill="white"/>
<path d="M17.9871 7.8144C18.7693 7.8144 19.4034 7.1803 19.4034 6.3981C19.4034 5.61589 18.7693 4.98179 17.9871 4.98179C17.2049 4.98179 16.5708 5.61589 16.5708 6.3981C16.5708 7.1803 17.2049 7.8144 17.9871 7.8144Z" fill="white"/>
</svg>
