<svg viewBox="0 0 64 64" xmlns="http://www.w3.org/2000/svg"><g id="United_Kingdom" data-name="United Kingdom"><path d="m56 32a23 23 0 0 1 -.34 4c-.11.68-.25 1.35-.42 2a23.92 23.92 0 0 1 -4.24 8.71c-.26.34-.53.68-.82 1a19.05 19.05 0 0 1 -1.38 1.46 19.13 19.13 0 0 1 -2 1.78 23.92 23.92 0 0 1 -8.8 4.29c-.65.17-1.32.31-2 .42a23.7 23.7 0 0 1 -8 0c-.68-.11-1.35-.25-2-.42a23.92 23.92 0 0 1 -8.71-4.24c-.34-.26-.68-.53-1-.82a19.05 19.05 0 0 1 -1.46-1.38 19.12 19.12 0 0 1 -1.78-2 23.92 23.92 0 0 1 -4.29-8.8c-.17-.65-.31-1.32-.42-2a23.7 23.7 0 0 1 0-8c.11-.68.25-1.35.42-2a23.92 23.92 0 0 1 4.24-8.71c.26-.34.53-.68.82-1a19.05 19.05 0 0 1 1.38-1.46 19.13 19.13 0 0 1 2-1.78 23.91 23.91 0 0 1 8.8-4.29c.65-.17 1.32-.31 2-.42a23.7 23.7 0 0 1 8 0c.68.11 1.35.25 2 .42a23.91 23.91 0 0 1 8.71 4.24c.34.26.68.53 1 .82a19 19 0 0 1 1.46 1.38 19.13 19.13 0 0 1 1.78 2 23.92 23.92 0 0 1 4.29 8.8c.17.65.31 1.32.42 2a23 23 0 0 1 .34 4z" fill="#00008c"/><path d="m51 46.71c-.26.34-.53.68-.82 1a19.05 19.05 0 0 1 -1.38 1.46 19.13 19.13 0 0 1 -2 1.78l-33.8-33.66c.26-.34.53-.68.82-1a19.05 19.05 0 0 1 1.38-1.46 19.13 19.13 0 0 1 2-1.78l25 25z" fill="#fff"/><path d="m51 17.29-33.71 33.71c-.34-.26-.68-.53-1-.82a19.05 19.05 0 0 1 -1.46-1.38 19.12 19.12 0 0 1 -1.78-2l8.71-8.8 25-25c.34.26.68.53 1 .82a19 19 0 0 1 1.46 1.38 19.13 19.13 0 0 1 1.78 2.09z" fill="#fff"/><g fill="#f00"><path d="m29.71 29.29-1.42 1.42-14.42-14.42a19.05 19.05 0 0 1 1.38-1.46l10.75 10.75.42.42 1.58 1.58.42.42z"/><path d="m50.13 47.71a19.05 19.05 0 0 1 -1.38 1.46l-13.46-13.46.71-.71.71-.71 1.29 1.29.42.42 2 2z"/><path d="m30.71 35.71-14.42 14.42a19.05 19.05 0 0 1 -1.46-1.38l10.75-10.75.42-.42 1.58-1.58.42-.42 1.29-1.29z"/><path d="m49.17 15.25-13.46 13.46-.71-.71-.71-.71 1.29-1.29.42-.42 2-2 9.71-9.71a19 19 0 0 1 1.46 1.38z"/></g><path d="m56 32a23 23 0 0 1 -.34 4c-.11.68-.25 1.35-.42 2h-46.48c-.17-.65-.31-1.32-.42-2a23.7 23.7 0 0 1 0-8c.11-.68.25-1.35.42-2h46.48c.17.65.31 1.32.42 2a23 23 0 0 1 .34 4z" fill="#fff"/><path d="m38 8.76v46.48c-.65.17-1.32.31-2 .42a23.7 23.7 0 0 1 -8 0c-.68-.11-1.35-.25-2-.42v-46.48c.65-.17 1.32-.31 2-.42a23.7 23.7 0 0 1 8 0c.68.11 1.35.25 2 .42z" fill="#fff"/><path d="m36 8.34v47.32a23.7 23.7 0 0 1 -8 0v-47.32a23.7 23.7 0 0 1 8 0z" fill="#f00"/><path d="m56 32a23 23 0 0 1 -.34 4h-47.32a23.7 23.7 0 0 1 0-8h47.32a23 23 0 0 1 .34 4z" fill="#f00"/></g></svg>