<svg id="Слой_1" data-name="Слой 1" xmlns="http://www.w3.org/2000/svg" viewBox="0 0 149.35 149.35"><defs><style>.cls-1{fill:#f93;}.cls-2{fill:#128807;}.cls-3{fill:#f3f4f5;}.cls-4{fill:#008;}</style></defs><path class="cls-1" d="M4.92,50.09H145.74A74.71,74.71,0,0,0,75.38.3h-.11A74.68,74.68,0,0,0,4.92,50.09Z" transform="translate(-0.65 -0.3)"/><path class="cls-2" d="M145.73,99.87H4.92a74.68,74.68,0,0,0,140.81,0Z" transform="translate(-0.65 -0.3)"/><path class="cls-3" d="M145.73,99.87a74.68,74.68,0,0,0,0-49.78H4.92a74.68,74.68,0,0,0,0,49.78Z" transform="translate(-0.65 -0.3)"/><path class="cls-4" d="M75.32,54.23A20.75,20.75,0,1,0,96.07,75,20.75,20.75,0,0,0,75.32,54.23Zm16.41,13a.91.91,0,0,0-.47,1.18.89.89,0,0,0,1.16.5c.16.46.31.93.44,1.4L82.18,72.5l-3.4,1.36a4.93,4.93,0,0,0-.22-.53l3.36-1.44,9.12-6Q91.42,66.54,91.73,67.2Zm-6.09-7.15a.91.91,0,0,0,1.44,1.1c.37.32.73.65,1.08,1a14.39,14.39,0,0,1,1,1.08A.91.91,0,0,0,89,64.48a.89.89,0,0,0,1.25.18c.28.41.54.82.78,1.25l-9.74,4.9L78.37,73a3.1,3.1,0,0,0-.35-.46l2.88-2.26,7.26-8.14L80,69.41l-2.27,2.88a3.94,3.94,0,0,0-.45-.36L79.49,69l4.91-9.74C84.82,59.51,85.24,59.77,85.64,60.05Zm-3.72-1a.91.91,0,0,0,1.18-.48c.44.22.88.45,1.3.69l-6,9.12L77,71.75a3.21,3.21,0,0,0-.54-.22l1.37-3.4L80,57.45c.48.12,1,.27,1.41.43A.91.91,0,0,0,81.92,59.05Zm-8.85-1.17a.9.9,0,0,0,.79-1c.48,0,1-.06,1.46-.06s1,0,1.47.06a.91.91,0,0,0,1.8.24,14.05,14.05,0,0,1,1.43.32L76.6,67.8l-.52,3.63a3.55,3.55,0,0,0-.57-.07L76,67.72l-.63-10.89L74.7,67.72l.44,3.64a3.42,3.42,0,0,0-.57.07l-.52-3.62L70.63,57.45c.47-.13,1-.23,1.43-.32A.9.9,0,0,0,73.07,57.88Zm-5.52.69a.9.9,0,0,0,1.67-.69c.46-.16.93-.31,1.41-.43l2.22,10.68,1.36,3.39a3.14,3.14,0,0,0-.53.23l-1.45-3.37-6-9.12C66.67,59,67.11,58.79,67.55,58.57Zm-7.16,6.09a.91.91,0,0,0,1.26-.18.9.9,0,0,0-.15-1.25c.32-.38.65-.74,1-1.09s.71-.67,1.09-1a.9.9,0,0,0,1.25.15A.91.91,0,0,0,65,60c.4-.27.82-.53,1.24-.78L71.16,69l2.2,2.93a3.33,3.33,0,0,0-.46.36L70.63,69.4l-8.14-7.26,7.26,8.15,2.88,2.26a5.55,5.55,0,0,0-.35.46l-2.93-2.2L59.61,65.9C59.85,65.48,60.12,65.06,60.39,64.66ZM58.93,82.75a.91.91,0,0,0-.7-1.67,17.71,17.71,0,0,1-.76-2.84.9.9,0,0,0-.23-1.79c0-.49-.07-1-.07-1.47s0-1,.07-1.47a.9.9,0,0,0,.23-1.79,17.71,17.71,0,0,1,.76-2.84.91.91,0,0,0,.7-1.67c.21-.44.43-.88.68-1.3l9.12,6,3.37,1.44a3.54,3.54,0,0,0-.23.53l-3.4-1.36L57.79,70.28,68.15,73.7l3.63.52a3.68,3.68,0,0,0-.07.58l-3.64-.44L57.18,75l10.89.62,3.64-.44a3.68,3.68,0,0,0,.07.58l-3.63.52L57.79,79.68l10.68-2.22,3.4-1.36a3.54,3.54,0,0,0,.23.53l-3.37,1.44-9.12,6C59.36,83.63,59.14,83.19,58.93,82.75ZM65,89.91a.9.9,0,0,0-.18-1.25.92.92,0,0,0-1.26.14q-.55-.47-1.08-1c-.35-.35-.68-.71-1-1.08a.91.91,0,0,0,.15-1.26.9.9,0,0,0-1.25-.18,14.36,14.36,0,0,1-.78-1.24l9.74-4.91L72.28,77a3,3,0,0,0,.35.45l-2.88,2.27-7.26,8.14,8.14-7.26,2.27-2.88a3,3,0,0,0,.45.35L71.16,81l-4.91,9.74C65.83,90.45,65.41,90.19,65,89.91Zm12.57,2.16a.92.92,0,0,0-.79,1c-.48,0-1,.07-1.47.07s-1,0-1.46-.07a.91.91,0,0,0-1.8-.23,18.28,18.28,0,0,1-2.84-.76.9.9,0,0,0-1.67-.69c-.44-.21-.88-.44-1.3-.69l6-9.11,1.44-3.37a3.21,3.21,0,0,0,.54.22l-1.37,3.4L70.63,92.51l3.42-10.36.52-3.62a3.42,3.42,0,0,0,.57.07l-.44,3.64.62,10.89L76,82.24l-.44-3.64a3.42,3.42,0,0,0,.57-.07l.52,3.62L80,92.51c-.47.13-1,.23-1.43.32A.92.92,0,0,0,77.58,92.07Zm5.52-.69a.91.91,0,0,0-1.18-.47.92.92,0,0,0-.5,1.16c-.45.17-.92.31-1.4.44L77.8,81.83l-1.36-3.4a3.11,3.11,0,0,0,.53-.22l1.44,3.37,6,9.12C84,90.94,83.54,91.17,83.1,91.38Zm7.15-6.09a.91.91,0,0,0-1.1,1.44c-.32.37-.65.74-1,1.08s-.71.68-1.09,1a.9.9,0,0,0-1.43,1.1c-.4.28-.82.54-1.24.79L79.49,81,77.29,78a2.66,2.66,0,0,0,.46-.35L80,80.55l8.14,7.26L80.9,79.67,78,77.41a5.19,5.19,0,0,0,.36-.46l2.93,2.2L91,84.05A14.46,14.46,0,0,1,90.25,85.29Zm1-3.71a.9.9,0,0,0,.47,1.17,14.63,14.63,0,0,1-.69,1.3l-9.12-6-3.37-1.44a3.54,3.54,0,0,0,.23-.53l3.4,1.36,10.68,2.22c-.13.47-.28.94-.44,1.4A.89.89,0,0,0,91.26,81.58Zm1.16-4.35a.9.9,0,0,0,.76,1c-.09.49-.2,1-.32,1.43L82.5,76.25l-3.63-.52a3.4,3.4,0,0,0,.08-.57l3.63.44L93.48,75l-10.89-.62L79,74.79a3.7,3.7,0,0,0-.07-.57l3.62-.52,10.36-3.42c.12.47.23,1,.32,1.43a.91.91,0,0,0,.23,1.8c0,.48.07,1,.07,1.47s0,1-.07,1.46A.91.91,0,0,0,92.42,77.23Z" transform="translate(-0.65 -0.3)"/></svg>