<svg width="90" height="74" viewBox="0 0 90 74" fill="none" xmlns="http://www.w3.org/2000/svg">
<path d="M7.54692 21.1716C8.95449 11.3186 17.3929 4 27.3459 4H62.6541C72.6071 4 81.0455 11.3186 82.4531 21.1716L86.7388 51.1716C88.46 63.2202 79.1108 74 66.9398 74H23.0602C10.8892 74 1.53997 63.2202 3.2612 51.1716L7.54692 21.1716Z" fill="url(#paint0_linear_210_100)" fill-opacity="0.4"/>
<path d="M8.04189 21.2423C9.41427 11.6356 17.6417 4.5 27.3459 4.5H62.6541C72.3583 4.5 80.5857 11.6356 81.9581 21.2423L86.2438 51.2423C87.922 62.9897 78.8065 73.5 66.9398 73.5H23.0602C11.1935 73.5 2.07797 62.9897 3.75618 51.2423L8.04189 21.2423Z" stroke="url(#paint1_linear_210_100)" stroke-opacity="0.2"/>
<g filter="url(#filter0_d_210_100)">
<rect x="33" y="4" width="24" height="2" rx="1" fill="#BAFA56"/>
</g>
<defs>
<filter id="filter0_d_210_100" x="28" y="0" width="34" height="12" filterUnits="userSpaceOnUse" color-interpolation-filters="sRGB">
<feFlood flood-opacity="0" result="BackgroundImageFix"/>
<feColorMatrix in="SourceAlpha" type="matrix" values="0 0 0 0 0 0 0 0 0 0 0 0 0 0 0 0 0 0 127 0" result="hardAlpha"/>
<feOffset dy="1"/>
<feGaussianBlur stdDeviation="2.5"/>
<feComposite in2="hardAlpha" operator="out"/>
<feColorMatrix type="matrix" values="0 0 0 0 0.729412 0 0 0 0 0.980392 0 0 0 0 0.337255 0 0 0 1 0"/>
<feBlend mode="normal" in2="BackgroundImageFix" result="effect1_dropShadow_210_100"/>
<feBlend mode="normal" in="SourceGraphic" in2="effect1_dropShadow_210_100" result="shape"/>
</filter>
<linearGradient id="paint0_linear_210_100" x1="45" y1="-12" x2="45" y2="74" gradientUnits="userSpaceOnUse">
<stop stop-color="#BAFA56"/>
<stop offset="1" stop-color="#BAFA56" stop-opacity="0"/>
</linearGradient>
<linearGradient id="paint1_linear_210_100" x1="45" y1="-47.5" x2="45" y2="74" gradientUnits="userSpaceOnUse">
<stop stop-color="white"/>
<stop offset="1" stop-color="white" stop-opacity="0"/>
</linearGradient>
</defs>
</svg>
