<svg width="32" height="32" viewBox="0 0 32 32" fill="none" xmlns="http://www.w3.org/2000/svg">
<g clip-path="url(#clip0_210_121)">
<path d="M15.8566 0.00125596C11.5126 0.0779438 8.00238 3.63546 8.00238 7.99741V13.6718C8.00238 13.9303 8.20801 14.148 8.46651 14.1489C8.46826 14.1489 8.46994 14.1489 8.47157 14.1489C8.47326 14.1489 8.47488 14.1489 8.47651 14.1489C8.73495 14.1479 8.94063 13.9302 8.94063 13.6718V8.08091C8.94063 4.11927 12.1658 0.869072 16.1268 0.93926C19.9609 1.0072 23.0591 4.14727 23.0591 7.99735V13.6717C23.0591 13.9302 23.2648 14.1479 23.5233 14.1489C23.5249 14.1489 23.5266 14.1489 23.5282 14.1489C23.5299 14.1489 23.5315 14.1489 23.5331 14.1489C23.7916 14.1479 23.9973 13.9302 23.9973 13.6717V8.09147C23.9973 3.60364 20.3437 -0.0779943 15.8566 0.00125596Z" fill="white"/>
<path d="M21.8067 9.58276H10.1932C9.93412 9.5827 9.72412 9.79276 9.72412 10.0518C9.72412 10.3109 9.93412 10.5209 10.1932 10.5209H21.8067C22.0658 10.5209 22.2758 10.3109 22.2758 10.0518C22.2758 9.79276 22.0658 9.58276 21.8067 9.58276Z" fill="white"/>
<path d="M28.3816 30.4931L27.2596 10.9267C27.2163 10.1731 26.5912 9.58283 25.8364 9.58283H25.2499C24.9908 9.58283 24.7808 9.79283 24.7808 10.0519C24.7808 10.311 24.9908 10.521 25.2499 10.521H25.8364C26.0944 10.521 26.3081 10.7228 26.3229 10.9803L27.4441 30.5302C27.4515 30.6597 27.4146 30.7903 27.3307 30.8892C27.2363 31.0003 27.1029 31.062 26.9585 31.062H5.05797C4.92828 31.062 4.7999 31.0177 4.70603 30.9281C4.60053 30.8275 4.54672 30.6908 4.55503 30.5467L5.6771 10.9803C5.69191 10.7227 5.9056 10.5209 6.16366 10.5209H6.75016C7.00923 10.5209 7.21923 10.3109 7.21923 10.0518C7.21923 9.79276 7.00923 9.58276 6.75016 9.58276H6.16366C5.40884 9.58276 4.78372 10.1731 4.74047 10.9266L3.6184 30.493C3.59602 30.8829 3.73696 31.2693 4.00515 31.5533C4.27328 31.8372 4.65109 32.0001 5.04159 32.0001H26.9586C27.3491 32.0001 27.7269 31.8372 27.995 31.5533C28.263 31.2695 28.4039 30.883 28.3816 30.4931Z" fill="white"/>
</g>
<defs>
<clipPath id="clip0_210_121">
<rect width="32" height="32" fill="white"/>
</clipPath>
</defs>
</svg>
