<svg width="32" height="32" viewBox="0 0 32 32" fill="none" xmlns="http://www.w3.org/2000/svg">
<path d="M14.3899 29H4.61011C4.47753 28.9999 4.3504 28.9472 4.25665 28.8535C4.1629 28.7597 4.1102 28.6326 4.11011 28.5V10.2581C4.11011 10.1254 4.05743 9.99827 3.96366 9.9045C3.86989 9.81074 3.74272 9.75806 3.61011 9.75806C3.4775 9.75806 3.35032 9.81074 3.25655 9.9045C3.16279 9.99827 3.11011 10.1254 3.11011 10.2581V28.5C3.11054 28.8977 3.26872 29.279 3.54993 29.5602C3.83114 29.8414 4.21242 29.9996 4.61011 30H14.3899C14.5225 30 14.6497 29.9473 14.7435 29.8536C14.8372 29.7598 14.8899 29.6326 14.8899 29.5C14.8899 29.3674 14.8372 29.2402 14.7435 29.1464C14.6497 29.0527 14.5225 29 14.3899 29Z" fill="white"/>
<path d="M3.61011 8.75806C3.67577 8.75808 3.7408 8.74516 3.80147 8.72004C3.86214 8.69492 3.91727 8.65809 3.9637 8.61165C4.01013 8.56522 4.04696 8.5101 4.07208 8.44942C4.0972 8.38875 4.11013 8.32373 4.11011 8.25806V6.75001C4.11024 6.61744 4.16296 6.49034 4.2567 6.3966C4.35044 6.30286 4.47754 6.25014 4.61011 6.25001H8.11011V7.00001C8.11009 7.06567 8.12301 7.1307 8.14813 7.19137C8.17325 7.25204 8.21008 7.30717 8.25652 7.3536C8.30295 7.40003 8.35808 7.43686 8.41875 7.46198C8.47942 7.4871 8.54444 7.50002 8.61011 7.50001H16.6101C16.6758 7.50002 16.7408 7.4871 16.8015 7.46198C16.8621 7.43686 16.9173 7.40003 16.9637 7.3536C17.0101 7.30717 17.047 7.25204 17.0721 7.19137C17.0972 7.1307 17.1101 7.06567 17.1101 7.00001V6.25001H20.6101C20.7427 6.25014 20.8698 6.30286 20.9635 6.3966C21.0573 6.49034 21.11 6.61744 21.1101 6.75001V11.575C21.1101 11.7076 21.1628 11.8347 21.2566 11.9285C21.3503 12.0223 21.4775 12.075 21.6101 12.075C21.7427 12.075 21.8699 12.0223 21.9637 11.9285C22.0574 11.8347 22.1101 11.7076 22.1101 11.575V6.75001C22.1097 6.35231 21.9515 5.97104 21.6703 5.68983C21.3891 5.40862 21.0078 5.25044 20.6101 5.25001H17.1101V4.50001C17.1101 4.43434 17.0972 4.36931 17.0721 4.30864C17.047 4.24797 17.0101 4.19285 16.9637 4.14641C16.9173 4.09998 16.8621 4.06315 16.8015 4.03803C16.7408 4.01291 16.6758 3.99999 16.6101 4.00001H15.0598C14.9445 3.4354 14.6377 2.92794 14.1913 2.5635C13.7449 2.19906 13.1864 2 12.6101 2C12.0338 2 11.4753 2.19906 11.0289 2.5635C10.5825 2.92794 10.2757 3.4354 10.1604 4.00001H8.61011C8.54444 3.99999 8.47942 4.01291 8.41875 4.03803C8.35808 4.06315 8.30295 4.09998 8.25652 4.14642C8.21008 4.19285 8.17325 4.24797 8.14813 4.30864C8.12301 4.36932 8.11009 4.43434 8.11011 4.50001V5.25001H4.61011C4.21242 5.25044 3.83114 5.40862 3.54993 5.68983C3.26872 5.97104 3.11054 6.35231 3.11011 6.75001V8.25806C3.11009 8.32373 3.12301 8.38875 3.14813 8.44942C3.17325 8.51009 3.21008 8.56522 3.25652 8.61165C3.30295 8.65809 3.35808 8.69492 3.41875 8.72004C3.47942 8.74516 3.54444 8.75808 3.61011 8.75806ZM9.11011 5.00001H10.6101C10.6758 5.00002 10.7408 4.9871 10.8015 4.96198C10.8621 4.93686 10.9173 4.90003 10.9637 4.8536C11.0101 4.80717 11.047 4.75204 11.0721 4.69137C11.0972 4.6307 11.1101 4.56567 11.1101 4.50001C11.1101 4.10218 11.2681 3.72065 11.5494 3.43935C11.8308 3.15804 12.2123 3.00001 12.6101 3.00001C13.0079 3.00001 13.3895 3.15804 13.6708 3.43935C13.9521 3.72065 14.1101 4.10218 14.1101 4.50001C14.1101 4.56567 14.123 4.6307 14.1481 4.69137C14.1733 4.75204 14.2101 4.80717 14.2565 4.8536C14.3029 4.90003 14.3581 4.93686 14.4187 4.96198C14.4794 4.9871 14.5444 5.00002 14.6101 5.00001H16.1101V6.50001H9.11011V5.00001Z" fill="white"/>
<path d="M20.3899 13.0001C18.5014 12.9929 16.6654 13.6218 15.178 14.7855C15.1256 14.8256 15.0816 14.8757 15.0487 14.9329C15.0157 14.9901 14.9944 15.0532 14.986 15.1187C14.9776 15.1841 14.9822 15.2506 14.9996 15.3143C15.017 15.378 15.0468 15.4376 15.0873 15.4897C15.1279 15.5417 15.1783 15.5853 15.2358 15.6178C15.2933 15.6502 15.3566 15.671 15.4221 15.6789C15.4876 15.6868 15.5541 15.6817 15.6176 15.6637C15.6811 15.6458 15.7405 15.6155 15.7923 15.5745C17.1045 14.5483 18.724 13.9937 20.3899 14.0001C21.8733 14.0001 23.3233 14.4399 24.5567 15.264C25.79 16.0881 26.7513 17.2595 27.319 18.6299C27.8866 20.0004 28.0352 21.5084 27.7458 22.9632C27.4564 24.4181 26.7421 25.7545 25.6932 26.8034C24.6443 27.8523 23.3079 28.5666 21.8531 28.856C20.3982 29.1453 18.8902 28.9968 17.5198 28.4292C16.1493 27.8615 14.978 26.9002 14.1539 25.6668C13.3298 24.4335 12.8899 22.9834 12.8899 21.5001C12.8833 19.8341 13.438 18.2145 14.4646 16.9024C14.5448 16.7977 14.5804 16.6655 14.5636 16.5346C14.5468 16.4038 14.4789 16.2849 14.3748 16.2038C14.2707 16.1228 14.1388 16.0862 14.0078 16.102C13.8768 16.1178 13.7574 16.1847 13.6755 16.2881C12.5118 17.7756 11.8828 19.6115 11.8899 21.5001C11.8899 23.1812 12.3884 24.8246 13.3224 26.2224C14.2564 27.6202 15.5839 28.7097 17.1371 29.353C18.6903 29.9964 20.3993 30.1647 22.0482 29.8367C23.697 29.5088 25.2116 28.6992 26.4003 27.5105C27.589 26.3217 28.3986 24.8072 28.7266 23.1583C29.0545 21.5095 28.8862 19.8004 28.2429 18.2473C27.5995 16.6941 26.5101 15.3666 25.1122 14.4326C23.7144 13.4986 22.071 13.0001 20.3899 13.0001Z" fill="white"/>
<path d="M18.8069 25.9775C18.8725 25.9775 18.9376 25.9646 18.9982 25.9395C19.0589 25.9143 19.114 25.8775 19.1604 25.831L25.7004 19.29C25.7469 19.2436 25.7837 19.1885 25.8088 19.1279C25.834 19.0672 25.8469 19.0022 25.8469 18.9365C25.8469 18.8709 25.834 18.8059 25.8088 18.7452C25.7837 18.6845 25.7469 18.6294 25.7004 18.583L24.2864 17.1689C24.1908 17.0786 24.0643 17.0283 23.9328 17.0283C23.8014 17.0283 23.6749 17.0786 23.5793 17.1689L18.8069 21.9419L17.2004 20.3359C17.154 20.2895 17.0989 20.2527 17.0382 20.2275C16.9776 20.2024 16.9126 20.1895 16.8469 20.1895C16.7813 20.1895 16.7162 20.2024 16.6556 20.2275C16.5949 20.2527 16.5398 20.2895 16.4934 20.3359L15.0793 21.75C15.0329 21.7964 14.9961 21.8515 14.9709 21.9122C14.9458 21.9728 14.9329 22.0379 14.9329 22.1035C14.9329 22.1692 14.9458 22.2342 14.9709 22.2948C14.9961 22.3555 15.0329 22.4106 15.0793 22.457L18.4533 25.831C18.4998 25.8775 18.5549 25.9143 18.6155 25.9395C18.6762 25.9646 18.7412 25.9775 18.8069 25.9775ZM16.8469 21.3965L18.4534 23.0025C18.4998 23.0489 18.5549 23.0857 18.6156 23.1109C18.6762 23.136 18.7412 23.1489 18.8069 23.1489C18.8725 23.1489 18.9376 23.136 18.9982 23.1109C19.0589 23.0857 19.114 23.0489 19.1604 23.0025L23.9329 18.2295L24.6399 18.9365L18.8069 24.7705L16.1399 22.1035L16.8469 21.3965Z" fill="white"/>
</svg>
