<svg width="32" height="32" viewBox="0 0 32 32" fill="none" xmlns="http://www.w3.org/2000/svg">
<g clip-path="url(#clip0_210_111)">
<path d="M31.2886 11.428L17.0214 1.02509C16.409 0.578552 15.5887 0.578552 14.9793 1.02509L0.710833 11.4286C-0.0608016 11.9917 -0.230877 13.0777 0.332233 13.8493L2.15679 16.3518C2.49575 16.8158 3.02401 17.0628 3.55947 17.0628C3.91344 17.0628 4.27044 16.9546 4.57753 16.7304L4.61498 16.7031V29.1499C4.61498 30.3399 5.58498 31.3099 6.77498 31.3099H25.22C26.415 31.3099 27.385 30.3399 27.385 29.1499V19.6151C27.385 19.2751 27.11 19.0001 26.77 19.0001C26.43 19.0001 26.155 19.2751 26.155 19.6151V29.1499C26.155 29.6599 25.735 30.0799 25.22 30.0799H20.5768V21.5064C20.5768 20.4992 19.757 19.6794 18.7498 19.6794H13.2497C12.2424 19.6794 11.4233 20.4992 11.4233 21.5064V30.0799H6.77498C6.265 30.0799 5.84499 29.6599 5.84499 29.1499V15.8062L15.9997 8.40149L27.4219 16.7311C28.1948 17.2936 29.2801 17.1223 29.8439 16.3512L31.6684 13.8493C32.2309 13.0765 32.0603 11.9905 31.2886 11.428ZM12.6541 21.5064C12.6541 21.1783 12.9215 20.9103 13.2497 20.9103H18.7498C19.0779 20.9103 19.346 21.1783 19.346 21.5064V30.0788H12.6541V21.5064ZM30.6732 13.1246L28.8498 15.6258C28.6852 15.85 28.3691 15.8957 28.1479 15.7364L16.3621 7.14304C16.147 6.98557 15.8525 6.98557 15.6373 7.14304L3.85274 15.7358C3.62978 15.8981 3.31487 15.8512 3.1508 15.6264L1.32683 13.1246C1.16338 12.901 1.21266 12.5861 1.43623 12.4226L15.7041 2.01908C15.7924 1.95478 15.8963 1.92234 16.0003 1.92234C16.1037 1.92234 16.2077 1.95478 16.296 2.01908L30.5626 12.4226C30.7874 12.5855 30.8367 12.901 30.6732 13.1246Z" fill="white"/>
</g>
<defs>
<clipPath id="clip0_210_111">
<rect width="32" height="32" fill="white"/>
</clipPath>
</defs>
</svg>
