<svg width="32" height="32" viewBox="0 0 32 32" fill="none" xmlns="http://www.w3.org/2000/svg">
<path d="M11.321 31.6873H4.42603C3.67349 31.6865 2.95198 31.3873 2.4198 30.8552C1.88761 30.3232 1.58821 29.6017 1.58728 28.8492L1.58728 25.375C1.58728 25.2755 1.62679 25.1802 1.69712 25.1098C1.76744 25.0395 1.86282 25 1.96228 25C2.06174 25 2.15712 25.0395 2.22745 25.1098C2.29777 25.1802 2.33728 25.2755 2.33728 25.375V28.8492C2.33798 29.4029 2.55829 29.9337 2.94988 30.3251C3.34146 30.7166 3.87233 30.9368 4.42603 30.9373H10.946V18.9929H4.42603C3.87225 18.9935 3.34133 19.2138 2.94975 19.6054C2.55817 19.997 2.33791 20.5279 2.33728 21.0817V23.4523C2.33728 23.5518 2.29777 23.6471 2.22745 23.7175C2.15712 23.7878 2.06174 23.8273 1.96228 23.8273C1.86282 23.8273 1.76744 23.7878 1.69712 23.7175C1.62679 23.6471 1.58728 23.5518 1.58728 23.4523V21.0817C1.58813 20.329 1.88749 19.6075 2.41967 19.0753C2.95186 18.5431 3.67341 18.2438 4.42603 18.2429H11.321C11.4205 18.2429 11.5159 18.2824 11.5862 18.3528C11.6565 18.4231 11.696 18.5185 11.696 18.6179V31.3123C11.696 31.3615 11.6863 31.4103 11.6675 31.4558C11.6486 31.5013 11.621 31.5426 11.5862 31.5775C11.5514 31.6123 11.51 31.6399 11.4645 31.6588C11.419 31.6776 11.3703 31.6873 11.321 31.6873Z" fill="white"/>
<path d="M20.6793 31.6876H11.3207C11.2213 31.6876 11.1259 31.6481 11.0556 31.5778C10.9852 31.5074 10.9457 31.412 10.9457 31.3126V15.4902C10.9466 14.7376 11.2459 14.0161 11.7781 13.484C12.3102 12.9518 13.0317 12.6525 13.7843 12.6516H18.2157C18.9683 12.6525 19.6898 12.9518 20.2219 13.484C20.7541 14.0161 21.0534 14.7376 21.0543 15.4902V31.3126C21.0543 31.412 21.0147 31.5074 20.9444 31.5778C20.8741 31.6481 20.7787 31.6876 20.6793 31.6876ZM11.6957 30.9376H20.3043V15.4902C20.3036 14.9365 20.0834 14.4056 19.6918 14.014C19.3003 13.6225 18.7694 13.4022 18.2157 13.4016H13.7843C13.2306 13.4022 12.6997 13.6225 12.3082 14.014C11.9166 14.4056 11.6964 14.9365 11.6957 15.4902V30.9376Z" fill="white"/>
<path d="M27.5742 31.6874H20.6793C20.5798 31.6874 20.4844 31.6479 20.4141 31.5776C20.3438 31.5072 20.3043 31.4119 20.3043 31.3124V22.1694C20.3043 22.07 20.3438 21.9746 20.4141 21.9043C20.4844 21.8339 20.5798 21.7944 20.6793 21.7944H27.5742C28.3268 21.7953 29.0483 22.0946 29.5805 22.6268C30.1126 23.1589 30.4119 23.8804 30.4128 24.633V28.8488C30.412 29.6014 30.1126 30.3229 29.5805 30.8551C29.0483 31.3872 28.3268 31.6866 27.5742 31.6874ZM21.0543 30.9374H27.5742C28.128 30.9368 28.6588 30.7165 29.0504 30.325C29.4419 29.9334 29.6622 29.4025 29.6628 28.8488V24.633C29.6622 24.0793 29.4419 23.5484 29.0504 23.1569C28.6588 22.7653 28.128 22.5451 27.5742 22.5445H21.0543V30.9374Z" fill="white"/>
<path d="M18.1423 9.74935C17.8419 9.74817 17.5498 9.65145 17.308 9.4732L16.3934 8.80868C16.2792 8.72535 16.1414 8.68046 16 8.68046C15.8586 8.68046 15.7209 8.72535 15.6066 8.80868L14.692 9.4732C14.4495 9.64937 14.1575 9.74426 13.8577 9.74427C13.558 9.74427 13.266 9.64939 13.0235 9.47322C12.781 9.29704 12.6005 9.04863 12.5079 8.76357C12.4153 8.47852 12.4153 8.17146 12.5079 7.88641L12.8573 6.81118C12.9012 6.67678 12.9014 6.5319 12.8577 6.39743C12.814 6.26295 12.7287 6.14582 12.6142 6.06292L11.6995 5.39837C11.457 5.2222 11.2765 4.97379 11.1839 4.68873C11.0913 4.40367 11.0913 4.09661 11.1839 3.81156C11.2765 3.5265 11.457 3.27808 11.6995 3.10191C11.942 2.92574 12.234 2.83086 12.5338 2.83087H13.6643C13.8057 2.83113 13.9435 2.78648 14.0579 2.70337C14.1723 2.62025 14.2574 2.50297 14.3008 2.36841L14.6502 1.29318C14.7428 1.00813 14.9233 0.75972 15.1658 0.583552C15.4083 0.407383 15.7003 0.3125 16 0.3125C16.2997 0.3125 16.5918 0.407383 16.8342 0.583552C17.0767 0.75972 17.2572 1.00813 17.3498 1.29318L17.6992 2.36841C17.7426 2.50297 17.8277 2.62025 17.9421 2.70337C18.0565 2.78648 18.1943 2.83113 18.3357 2.83087H19.4663C19.766 2.83086 20.058 2.92574 20.3005 3.10191C20.543 3.27808 20.7235 3.5265 20.8161 3.81156C20.9087 4.09661 20.9087 4.40368 20.8161 4.68873C20.7235 4.97379 20.543 5.2222 20.3005 5.39837L19.3859 6.06292C19.2713 6.14582 19.1861 6.26295 19.1424 6.39743C19.0987 6.5319 19.0988 6.67678 19.1427 6.81118L19.4921 7.88641C19.5881 8.17119 19.5898 8.47934 19.4969 8.76516C19.4041 9.05098 19.2216 9.29927 18.9765 9.47323C18.7348 9.65145 18.4426 9.74815 18.1423 9.74935ZM16 7.93001C16.2999 7.93009 16.5919 8.0253 16.8342 8.20193L17.7489 8.86645C17.8632 8.94952 18.0009 8.99426 18.1423 8.99425C18.2836 8.99425 18.4213 8.9495 18.5357 8.86642C18.65 8.78334 18.7351 8.66619 18.7788 8.53177C18.8224 8.39735 18.8224 8.25256 18.7788 8.11814L18.4294 7.04291C18.3362 6.7579 18.3359 6.45068 18.4286 6.16551C18.5213 5.88034 18.7021 5.63196 18.945 5.45617L19.8596 4.79162C19.974 4.70855 20.0591 4.59141 20.1028 4.45699C20.1465 4.32257 20.1465 4.17777 20.1028 4.04335C20.0591 3.90893 19.974 3.79179 19.8596 3.70871C19.7453 3.62563 19.6076 3.58089 19.4663 3.5809H18.3357C18.0358 3.58144 17.7436 3.48677 17.501 3.31051C17.2584 3.13426 17.078 2.88553 16.9859 2.60018L16.6365 1.52495C16.5928 1.39054 16.5077 1.2734 16.3934 1.19034C16.279 1.10727 16.1413 1.06253 16 1.06253C15.8587 1.06253 15.7209 1.10727 15.6066 1.19034C15.4923 1.2734 15.4072 1.39054 15.3635 1.52495L15.0141 2.60018C14.922 2.88553 14.7416 3.13426 14.499 3.31051C14.2564 3.48677 13.9641 3.58144 13.6643 3.5809H12.5338C12.3924 3.58089 12.2547 3.62564 12.1404 3.70871C12.026 3.79179 11.9409 3.90893 11.8972 4.04335C11.8536 4.17777 11.8536 4.32256 11.8972 4.45698C11.9409 4.5914 12.026 4.70854 12.1404 4.79162L13.055 5.45617C13.2979 5.63196 13.4787 5.88035 13.5714 6.16552C13.6641 6.4507 13.6638 6.75793 13.5706 7.04293L13.2213 8.11814C13.1776 8.25256 13.1776 8.39736 13.2213 8.53177C13.2649 8.66619 13.35 8.78334 13.4644 8.86641C13.5787 8.94949 13.7164 8.99424 13.8578 8.99424C13.9991 8.99424 14.1368 8.9495 14.2512 8.86643L15.1658 8.20191C15.4081 8.02531 15.7002 7.93012 16 7.93001Z" fill="white"/>
</svg>
