<svg width="32" height="32" viewBox="0 0 32 32" fill="none" xmlns="http://www.w3.org/2000/svg">
<path d="M16.0006 16.3468C11.4934 16.3468 7.82689 12.6803 7.82689 8.17308C7.82689 3.66647 11.4934 0 16.0006 0C20.5078 0 24.1736 3.66646 24.1736 8.17307C24.1736 12.6803 20.5078 16.3468 16.0006 16.3468ZM16.0006 1.23077C12.1724 1.23077 9.05765 4.34495 9.05765 8.17307C9.05765 12.0012 12.1724 15.116 16.0006 15.116C19.8287 15.116 22.9429 12.0012 22.9429 8.17307C22.9429 4.34495 19.8287 1.23077 16.0006 1.23077Z" fill="white"/>
<path d="M27.4393 32H4.56066C3.82569 32 3.13218 31.6755 2.65802 31.1118C2.20249 30.5685 2.01078 29.8654 2.13097 29.1803C2.38531 27.735 2.87663 26.3787 3.56382 25.1444C3.74071 24.8267 4.15791 24.7514 4.44738 24.9715C4.70036 25.1639 4.76478 25.5158 4.61157 25.7943C4.00442 26.8977 3.57001 28.1071 3.34371 29.3942C3.28542 29.7248 3.37677 30.0529 3.60092 30.3197C3.84011 30.6058 4.19047 30.7692 4.56066 30.7692H27.4393C27.8107 30.7692 28.1604 30.6058 28.3996 30.3197C28.6244 30.0529 28.7145 29.7236 28.6568 29.393C27.6256 23.5493 22.2986 19.3077 15.9903 19.3077C12.3916 19.3077 9.11291 20.6918 6.77138 22.9682C6.5322 23.2007 6.15297 23.2205 5.90269 23C5.64257 22.7708 5.62166 22.3711 5.86916 22.1283C8.43702 19.6095 12.0379 18.0769 15.9903 18.0769C22.8972 18.0769 28.7337 22.7464 29.8684 29.1791C29.9897 29.8642 29.7986 30.5673 29.3431 31.1106C28.8696 31.6755 28.1748 32 27.4393 32Z" fill="white"/>
</svg>
