<svg width="30" height="32" viewBox="0 0 30 32" fill="none" xmlns="http://www.w3.org/2000/svg">
<g clip-path="url(#clip0_2132_385)">
<path d="M23.1233 26.434C23.0863 26.4241 23.0494 26.4142 23.0141 26.3981C22.9833 26.3899 22.9603 26.3771 22.9374 26.3643L10.7844 19.8391C10.5239 19.7028 10.4245 19.3838 10.5608 19.1214C10.6972 18.8589 11.0146 18.758 11.2752 18.8942L11.2813 18.8959L23.3945 25.3972C23.6733 25.4652 23.9669 25.4044 24.1913 25.2319C24.442 25.0599 24.5911 24.7743 24.5875 24.4677L24.6176 4.86931C24.6201 4.56436 24.466 4.27724 24.2138 4.11C23.9923 3.951 23.7007 3.90609 23.4392 3.99545L11.2886 10.4931C11.0277 10.6292 10.7124 10.5248 10.578 10.2629C10.448 10.0088 10.545 9.69594 10.7936 9.55658L22.9755 3.04071C22.9911 3.03162 23.0068 3.02252 23.0269 3.02127C23.6176 2.78755 24.2892 2.86784 24.8055 3.23207C25.348 3.59671 25.6787 4.21019 25.6727 4.87299L25.6393 24.4838C25.6383 25.128 25.3239 25.7348 24.8019 26.1065C24.3173 26.4616 23.7039 26.583 23.1233 26.434Z" fill="white"/>
<path d="M3.80036 19.7417C1.60338 19.1464 0.0743488 17.1421 0.0807965 14.8517L0.0811521 14.5794C0.0861647 11.7769 2.34505 9.50533 5.13171 9.50124L11.0424 9.49043C11.3333 9.48865 11.5734 9.72574 11.5681 10.0166L11.5557 19.3747C11.5565 19.6673 11.3138 19.9079 11.0246 19.9035L5.1139 19.9143C4.67137 19.9153 4.23147 19.8572 3.80036 19.7417ZM10.5139 10.5514L5.13243 10.5578C2.9276 10.5584 1.13846 12.3579 1.13347 14.569L1.13311 14.8413C1.12812 17.0524 2.91167 18.8458 5.11034 18.8436L10.4918 18.8372L10.5139 10.5514Z" fill="white"/>
<path d="M24.9825 19.225C24.6992 19.1491 24.5328 18.8587 24.6092 18.5735C24.6723 18.3379 24.8794 18.1808 25.1178 18.1783C27.1648 18.1753 28.8259 16.6073 28.8334 14.6825C28.8347 12.7561 27.1738 11.1948 25.1329 11.1994C24.8403 11.2074 24.5985 10.9765 24.5916 10.6823C24.5846 10.3881 24.815 10.1442 25.1075 10.1362C25.1137 10.1379 25.1277 10.135 25.1338 10.1367C27.761 10.1363 29.8961 12.1701 29.8902 14.68C29.8844 17.1899 27.7457 19.2345 25.1168 19.241C25.0704 19.2419 25.0256 19.2365 24.9825 19.225Z" fill="white"/>
<path d="M6.72768 30.4461C5.45899 30.1061 4.58131 28.9474 4.57762 27.6309L4.58975 19.3823C4.58893 19.0897 4.82546 18.8475 5.12087 18.8536L9.86954 18.8437C10.1605 18.8419 10.4006 19.079 10.3936 19.3761L10.3831 27.6185C10.3798 29.2321 9.07935 30.538 7.47482 30.5399C7.22252 30.5454 6.96787 30.5104 6.72768 30.4461ZM5.64301 19.9103L5.63609 27.6222C5.69156 28.6469 6.56538 29.4259 7.58455 29.3668C8.52317 29.3127 9.26736 28.5553 9.32795 27.6148L9.33487 19.903L5.64301 19.9103Z" fill="white"/>
</g>
<defs>
<clipPath id="clip0_2132_385">
<rect width="30" height="32" fill="white"/>
</clipPath>
</defs>
</svg>
