<svg width="25" height="22" viewBox="0 0 25 22" fill="none" xmlns="http://www.w3.org/2000/svg">
<path d="M24.0212 1.20924L20.3233 20.5143C20.3233 20.5143 19.8059 21.8528 18.3846 21.2109L9.8526 14.4365L9.81304 14.4165C10.9655 13.3449 19.9023 5.02403 20.2929 4.64686C20.8975 4.06272 20.5222 3.71496 19.8201 4.15622L6.61937 12.8375L1.52654 11.063C1.52654 11.063 0.725078 10.7678 0.647975 10.1258C0.569858 9.48285 1.55292 9.13509 1.55292 9.13509L22.3148 0.700743C22.3148 0.700743 24.0212 -0.0756626 24.0212 1.20924Z" fill="white"/>
<path d="M23.207 0.971191C23.3758 0.957947 23.4525 0.987649 23.4746 1.00244C23.4789 1.00535 23.485 1.00919 23.4932 1.02686C23.5021 1.04626 23.5153 1.09107 23.5186 1.17529L19.8428 20.3628C19.8319 20.3848 19.8161 20.4165 19.7939 20.4526C19.7424 20.5367 19.6671 20.6363 19.5684 20.7183C19.4722 20.7979 19.3574 20.8575 19.2168 20.8774C19.0847 20.8961 18.8971 20.8823 18.6377 20.7729L10.585 14.3804C12.7136 12.3994 20.278 5.35652 20.6406 5.00635C20.8211 4.83199 20.9684 4.63816 21.043 4.43115C21.117 4.22562 21.1443 3.90498 20.8984 3.66162C20.6788 3.44447 20.3849 3.44008 20.1943 3.47119C19.9848 3.50546 19.7664 3.59923 19.5537 3.73291L19.5449 3.73877L6.5498 12.2837L1.69141 10.5903C1.68996 10.5897 1.68824 10.5891 1.68652 10.5884C1.67239 10.5824 1.64938 10.5721 1.62109 10.5581C1.56346 10.5296 1.48754 10.4874 1.41211 10.4321C1.28869 10.3416 1.20762 10.2481 1.16895 10.1567L1.14453 10.0659L1.14746 10.0317C1.15943 9.98639 1.2059 9.90687 1.36035 9.79736C1.44682 9.73607 1.53972 9.68635 1.61328 9.65186C1.6489 9.63516 1.678 9.62251 1.69727 9.61475C1.70671 9.61094 1.71387 9.60841 1.71777 9.60693L1.71875 9.60596L1.71973 9.60693L1.73047 9.60303L1.74121 9.59814L22.5029 1.16357L22.5127 1.15967L22.5215 1.15576L22.5205 1.15674L22.5225 1.15576C22.5241 1.15503 22.5271 1.15366 22.5312 1.15186C22.5403 1.14798 22.5551 1.14196 22.5742 1.13428C22.6129 1.11876 22.67 1.09721 22.7383 1.07471C22.8792 1.02828 23.0498 0.983548 23.207 0.971191Z" stroke="url(#paint0_linear_2144_39)" stroke-opacity="0.2"/>
<defs>
<linearGradient id="paint0_linear_2144_39" x1="12.3324" y1="-14.9206" x2="12.3324" y2="21.3851" gradientUnits="userSpaceOnUse">
<stop stop-color="white"/>
<stop offset="1" stop-color="white" stop-opacity="0.2"/>
</linearGradient>
</defs>
</svg>
