<svg width="14" height="24" viewBox="0 0 14 24" fill="none" xmlns="http://www.w3.org/2000/svg">
<path d="M9.83707 23.8087C6.38182 23.8087 3.81918 22.0379 3.81918 17.7908V10.9955H0.680664V7.30991C4.13591 6.4173 5.5756 3.45155 5.73396 0.874512H9.31878V6.71964H13.4939V10.9955H9.31878V16.9126C9.31878 18.6834 10.2114 19.3025 11.6367 19.3025H13.6666V23.8087H9.83707Z" fill="white"/>
<path d="M8.81836 1.37451V7.21924H12.9941V10.4956H8.81836V16.9126C8.81836 17.8757 9.0624 18.6309 9.60156 19.1362C10.1346 19.6358 10.8632 19.8022 11.6367 19.8022H13.167V23.3091H9.83691C8.1884 23.3091 6.81996 22.8859 5.86816 22.022C4.9251 21.1658 4.31934 19.8105 4.31934 17.7905V10.4956H1.18066V7.68604C4.43341 6.67396 5.89474 3.88789 6.19043 1.37451H8.81836Z" stroke="url(#paint0_linear_2144_41)" stroke-opacity="0.25"/>
<defs>
<linearGradient id="paint0_linear_2144_41" x1="7.17365" y1="-15.9985" x2="7.17365" y2="23.8087" gradientUnits="userSpaceOnUse">
<stop stop-color="white"/>
<stop offset="1" stop-color="white" stop-opacity="0.2"/>
</linearGradient>
</defs>
</svg>
