<svg width="325" height="104" viewBox="0 0 325 104" fill="none" xmlns="http://www.w3.org/2000/svg">
<g clip-path="url(#clip0_12_59)">
<mask id="mask0_12_59" style="mask-type:luminance" maskUnits="userSpaceOnUse" x="0" y="0" width="325" height="104">
<path d="M324.76 0H0.239502V104H324.76V0Z" fill="white"/>
</mask>
<g mask="url(#mask0_12_59)">
<path d="M0.239502 52V104H162.5H324.762V52V0H162.5H0.239502V52ZM323.353 52V102.595H162.5H1.64638V52V1.40541H162.5H323.353V52Z" fill="#789DBF"/>
<path d="M34.3996 24.3441C25.6663 26.6406 20.9321 31.6932 20.9321 38.8128C20.9321 46.4835 26.0341 51.3062 36.9735 54.0164C39.4095 54.6134 42.7649 55.3024 44.4654 55.5779C48.2804 56.1751 53.5204 57.9205 55.3129 59.2068C58.1166 61.1818 58.8981 64.9022 57.1056 67.5665C54.8073 71.0114 50.6705 72.5729 43.96 72.5729C36.284 72.5729 31.5037 70.3683 28.7918 65.5912C26.7695 62.0086 26.8155 62.0086 23.0005 62.0086C19.6452 62.0086 19.5532 62.0545 19.5532 63.1109C19.5532 65.0861 21.3918 69.128 23.5061 71.8382C25.9881 75.0073 29.3894 77.304 33.848 78.8657C36.8356 79.9221 37.9845 80.0599 43.4544 80.0599C50.1191 80.1058 53.0148 79.5089 57.3812 77.304C65.0572 73.4458 68.3206 65.178 64.8733 58.1963C63.4486 55.2106 61.426 53.3274 57.7949 51.4902C54.2556 49.6986 51.4979 48.918 43.6382 47.5399C35.5025 46.1159 32.469 45.0136 30.6765 42.9468C28.8378 40.8797 28.516 39.1802 29.4814 36.7917C30.4467 34.4031 32.2851 32.8416 35.2727 31.9228C43.5923 29.4886 52.0954 31.5554 56.0943 37.0674L57.4731 38.9965H61.518C64.0459 39.0424 65.5168 38.8588 65.5168 38.5371C65.5168 37.0215 62.7131 32.52 60.2771 30.0855C55.5887 25.4465 50.0272 23.4254 42.2592 23.4713C39.3635 23.4713 36.5138 23.7929 34.3996 24.3441Z" fill="#789DBF"/>
<path d="M75.2733 52V79.6396H79.4941H83.7146V68.0217V56.4037L94.782 56.4973C104.912 56.6847 106.037 56.4973 109.789 54.3423C115.229 51.2504 117.761 47.0343 117.761 40.8504C117.761 33.5423 114.947 28.8576 109.132 26.3279C105.005 24.6414 102.754 24.3604 89.905 24.3604H75.2733V52ZM105.568 32.8866C108.57 34.4793 109.039 35.5099 109.039 40.4756C109.039 43.7549 108.476 45.5351 107.163 46.8469C104.63 49.3766 102.379 49.7514 92.6248 49.4702L84.1835 49.1892L83.9022 40.4756L83.6209 31.8557H93.5628C99.2841 31.8557 104.443 32.3244 105.568 32.8866Z" fill="#789DBF"/>
<path d="M126.859 52V79.6396H131.08H135.3V52V24.3604H131.08H126.859V52Z" fill="#789DBF"/>
<path d="M149.369 52V79.6396H168.128H186.886V75.8919V72.1442H172.348H157.81V48.2523V24.3604H153.59H149.369V52Z" fill="#789DBF"/>
<path d="M195.134 51.9034V79.4629H198.811H202.488V57.4154C202.488 45.2894 202.672 35.3679 202.856 35.3679C203.04 35.3679 205.568 38.6291 208.464 42.5792C217.518 55.1187 219.173 57.4154 222.528 61.9626C224.275 64.3971 227.906 69.3119 230.48 72.8945L235.26 79.4629H239.535H243.856V51.9034V24.3441H240.178H236.501V45.7026C236.501 58.4718 236.317 67.0611 236.088 67.0611C235.858 67.0611 230.94 60.493 225.148 52.5006C219.403 44.5085 212.508 34.9544 209.842 31.2799L204.97 24.5738L200.052 24.436L195.134 24.2982V51.9034Z" fill="#789DBF"/>
<path d="M273.87 25.125C274.009 25.5842 274.973 27.8809 276.076 30.2235L278.051 34.4952L277.179 36.1488C275.664 38.9965 271.067 43.498 265.459 47.6779C258.932 52.5925 256.265 55.2567 254.566 58.6557C253.463 60.9522 253.279 61.8708 253.279 65.2239C253.279 68.5769 253.463 69.4956 254.566 71.7463C256.129 74.9616 259.163 77.7175 262.654 79.0497C266.562 80.6112 273.365 80.5193 277.316 78.9117C281.913 77.0285 285.086 74.9157 289.359 70.8736L293.357 67.1073L296.254 73.2621L299.149 79.4629H303.47H307.746L307.103 77.9471C306.504 76.5693 305.217 73.8591 299.472 61.779C298.138 58.9772 295.564 53.5111 293.725 49.607C291.889 45.7026 288.9 39.3641 287.061 35.5975C285.269 31.7853 283.339 27.7432 282.832 26.5031L281.913 24.3442H277.776C274.053 24.3442 273.641 24.436 273.87 25.125ZM283.155 45.1057C283.89 46.7131 285.682 50.5715 287.153 53.695L289.819 59.3904L288.624 61.182C286.373 64.3971 280.901 69.1741 277.592 70.7818C274.973 72.0678 273.778 72.3435 270.744 72.4813C267.573 72.5731 266.791 72.4354 265.275 71.5627C261.414 69.3578 260.355 64.3052 262.837 60.0795C264.08 57.9667 265.32 56.8182 274.237 49.5152C276.628 47.5858 279.202 45.1975 279.937 44.1409C280.717 43.1305 281.453 42.2577 281.592 42.2577C281.729 42.2577 282.419 43.544 283.155 45.1057Z" fill="#789DBF"/>
</g>
</g>
<defs>
<clipPath id="clip0_12_59">
<rect width="325" height="104" fill="white"/>
</clipPath>
</defs>
</svg>
