<svg width="124" height="40" viewBox="0 0 124 40" fill="none" xmlns="http://www.w3.org/2000/svg">
<g clip-path="url(#clip0_127_678)">
<mask id="mask0_127_678" style="mask-type:luminance" maskUnits="userSpaceOnUse" x="0" y="0" width="124" height="40">
<path d="M123.908 0H0.0913086V40H123.908V0Z" fill="white"/>
</mask>
<g mask="url(#mask0_127_678)">
<path d="M0.0913086 20V40H61.9999H123.909V20V0H61.9999H0.0913086V20ZM123.371 20V39.4595H61.9999H0.628089V20V0.540541H61.9999H123.371V20Z" fill="#F5F5F5"/>
<path d="M13.1247 9.3631C9.79259 10.2464 7.98631 12.1897 7.98631 14.928C7.98631 17.8783 9.9329 19.7332 14.1067 20.7756C15.0361 21.0052 16.3163 21.2702 16.9652 21.3761C18.4207 21.6058 20.42 22.2771 21.1039 22.7718C22.1736 23.5315 22.4718 24.9624 21.7879 25.9871C20.911 27.3121 19.3326 27.9127 16.7723 27.9127C13.8436 27.9127 12.0198 27.0647 10.9851 25.2274C10.2135 23.8495 10.231 23.8495 8.77547 23.8495C7.49528 23.8495 7.46021 23.8671 7.46021 24.2734C7.46021 25.0331 8.16168 26.5877 8.96838 27.6301C9.91536 28.849 11.2131 29.7323 12.9142 30.333C14.0541 30.7393 14.4925 30.7923 16.5794 30.7923C19.1223 30.8099 20.2271 30.5803 21.893 29.7323C24.8217 28.2484 26.0668 25.0684 24.7516 22.3832C24.208 21.2348 23.4363 20.5105 22.0509 19.8039C20.7005 19.1148 19.6483 18.8146 16.6496 18.2846C13.5455 17.7369 12.3881 17.3129 11.7042 16.518C11.0026 15.723 10.8799 15.0693 11.2482 14.1506C11.6165 13.232 12.3179 12.6314 13.4578 12.278C16.632 11.3418 19.8763 12.1367 21.402 14.2567L21.9281 14.9987H23.4714C24.4359 15.0163 24.9971 14.9457 24.9971 14.822C24.9971 14.239 23.9274 12.5077 22.9979 11.5714C21.2091 9.78711 19.0872 9.00979 16.1234 9.02745C15.0186 9.02745 13.9313 9.15111 13.1247 9.3631Z" fill="#F5F5F5"/>
<path d="M28.7195 20V30.6306H30.3299H31.9402V26.1622V21.6938L36.1628 21.7297C40.0277 21.8018 40.4571 21.7297 41.8885 20.9009C43.964 19.7117 44.9302 18.0901 44.9302 15.7117C44.9302 12.9009 43.8567 11.0991 41.6379 10.1261C40.0634 9.47749 39.2046 9.36938 34.302 9.36938H28.7195V20ZM40.2781 12.6487C41.4233 13.2613 41.6022 13.6577 41.6022 15.5675C41.6022 16.8288 41.3875 17.5135 40.8865 18.018C39.9202 18.991 39.0614 19.1352 35.3397 19.027L32.1191 18.919L32.0117 15.5675L31.9044 12.2522H35.6976C37.8805 12.2522 39.8488 12.4325 40.2781 12.6487Z" fill="#F5F5F5"/>
<path d="M48.4016 20V30.6306H50.0119H51.6223V20V9.36938H50.0119H48.4016V20Z" fill="#F5F5F5"/>
<path d="M56.99 20V30.6306H64.1471H71.3041V29.1892V27.7478H65.7574H60.2107V18.5586V9.36938H58.6004H56.99V20Z" fill="#F5F5F5"/>
<path d="M74.4512 19.9629V30.5627H75.8541H77.2571V22.0829C77.2571 17.419 77.3272 13.6031 77.3973 13.6031C77.4675 13.6031 78.4321 14.8574 79.5369 16.3766C82.9916 21.1995 83.6229 22.0829 84.9031 23.8318C85.5696 24.7681 86.955 26.6584 87.937 28.0364L89.7608 30.5627H91.3918H93.0403V19.9629V9.36314H91.6373H90.2343V17.578C90.2343 22.4892 90.1642 25.7927 90.0765 25.7927C89.9888 25.7927 88.1124 23.2665 85.9028 20.1926C83.7106 17.1187 81.08 13.444 80.0629 12.0307L78.2041 9.45148L76.3276 9.39847L74.4512 9.34548V19.9629Z" fill="#F5F5F5"/>
<path d="M104.492 9.66349C104.545 9.8401 104.913 10.7234 105.334 11.6244L106.087 13.2674L105.754 13.9034C105.176 14.9987 103.422 16.73 101.283 18.3377C98.7922 20.2279 97.775 21.2526 97.1266 22.5599C96.7057 23.4432 96.6355 23.7965 96.6355 25.0861C96.6355 26.3758 96.7057 26.7291 97.1266 27.5947C97.7229 28.8314 98.8804 29.8914 100.212 30.4037C101.704 31.0043 104.299 30.969 105.807 30.3506C107.56 29.6263 108.771 28.8137 110.402 27.2591L111.927 25.8105L113.032 28.1778L114.137 30.5627H115.785H117.417L117.171 29.9797C116.943 29.4497 116.452 28.4074 114.26 23.7611C113.751 22.6835 112.769 20.5812 112.067 19.0796C111.367 17.5779 110.226 15.14 109.525 13.6914C108.841 12.2251 108.105 10.6705 107.911 10.1935L107.56 9.36315H105.982C104.562 9.36315 104.404 9.39848 104.492 9.66349ZM108.034 17.3484C108.315 17.9666 108.999 19.4506 109.56 20.6519L110.577 22.8425L110.121 23.5316C109.262 24.7681 107.175 26.6054 105.912 27.2238C104.913 27.7184 104.457 27.8244 103.299 27.8774C102.089 27.9127 101.791 27.8598 101.213 27.5241C99.7393 26.6761 99.3354 24.7328 100.282 23.1075C100.757 22.2949 101.23 21.8532 104.632 19.0443C105.544 18.3022 106.526 17.3837 106.807 16.9773C107.104 16.5886 107.385 16.253 107.438 16.253C107.49 16.253 107.754 16.7477 108.034 17.3484Z" fill="#F5F5F5"/>
</g>
</g>
<defs>
<clipPath id="clip0_127_678">
<rect width="124" height="40" fill="white"/>
</clipPath>
</defs>
</svg>
