<svg width="124" height="40" viewBox="0 0 124 40" fill="none" xmlns="http://www.w3.org/2000/svg">
<g clip-path="url(#clip0_4_2)">
<mask id="mask0_4_2" style="mask-type:luminance" maskUnits="userSpaceOnUse" x="0" y="0" width="124" height="40">
<path d="M123.908 0H0.0913696V40H123.908V0Z" fill="white"/>
</mask>
<g mask="url(#mask0_4_2)">
<path d="M0.0913696 20V40H62H123.909V20V-1.90735e-06H62H0.0913696V20ZM123.371 20V39.4595H62H0.62815V20V0.540539H62H123.371V20Z" fill="#066DCA"/>
<path d="M13.1248 9.3631C9.79268 10.2464 7.98641 12.1897 7.98641 14.928C7.98641 17.8783 9.93299 19.7332 14.1068 20.7756C15.0362 21.0052 16.3164 21.2702 16.9652 21.3761C18.4208 21.6058 20.4201 22.2771 21.104 22.7718C22.1737 23.5315 22.4719 24.9624 21.788 25.9871C20.9111 27.3121 19.3327 27.9127 16.7724 27.9127C13.8437 27.9127 12.0198 27.0647 10.9852 25.2274C10.2136 23.8495 10.2311 23.8495 8.77556 23.8495C7.49537 23.8495 7.4603 23.8671 7.4603 24.2734C7.4603 25.0331 8.16177 26.5877 8.96847 27.6301C9.91545 28.849 11.2132 29.7323 12.9143 30.333C14.0542 30.7393 14.4925 30.7923 16.5795 30.7923C19.1224 30.8099 20.2272 30.5803 21.8931 29.7323C24.8218 28.2484 26.0669 25.0684 24.7517 22.3832C24.2081 21.2348 23.4364 20.5105 22.051 19.8039C20.7006 19.1148 19.6484 18.8146 16.6497 18.2846C13.5456 17.7369 12.3881 17.3129 11.7043 16.518C11.0027 15.723 10.88 15.0693 11.2483 14.1506C11.6166 13.232 12.318 12.6314 13.4579 12.278C16.6321 11.3418 19.8764 12.1367 21.4021 14.2567L21.9282 14.9987H23.4715C24.436 15.0163 24.9972 14.9457 24.9972 14.822C24.9972 14.239 23.9274 12.5077 22.998 11.5714C21.2092 9.78711 19.0873 9.00978 16.1235 9.02745C15.0187 9.02745 13.9314 9.15111 13.1248 9.3631Z" fill="#066DCA"/>
<path d="M28.7197 20V30.6306H30.33H31.9403V26.1622V21.6937L36.163 21.7297C40.0278 21.8018 40.4573 21.7297 41.8887 20.9009C43.9642 19.7117 44.9304 18.0901 44.9304 15.7117C44.9304 12.9009 43.8568 11.0991 41.6381 10.1261C40.0636 9.47749 39.2048 9.36937 34.3022 9.36937H28.7197V20ZM40.2783 12.6487C41.4235 13.2613 41.6024 13.6577 41.6024 15.5675C41.6024 16.8288 41.3877 17.5135 40.8866 18.018C39.9204 18.991 39.0616 19.1352 35.3399 19.027L32.1192 18.9189L32.0119 15.5675L31.9046 12.2522H35.6978C37.8807 12.2522 39.8489 12.4325 40.2783 12.6487Z" fill="#066DCA"/>
<path d="M48.4016 20V30.6306H50.0119H51.6223V20V9.36937H50.0119H48.4016V20Z" fill="#066DCA"/>
<path d="M56.99 20V30.6306H64.1471H71.3042V29.1892V27.7478H65.7574H60.2107V18.5586V9.36937H58.6004H56.99V20Z" fill="#066DCA"/>
<path d="M74.4512 19.9629V30.5627H75.8541H77.2571V22.0829C77.2571 17.419 77.3273 13.6031 77.3973 13.6031C77.4675 13.6031 78.4321 14.8574 79.5369 16.3766C82.9916 21.1995 83.6229 22.0829 84.9031 23.8318C85.5696 24.7681 86.955 26.6584 87.937 28.0364L89.7608 30.5627H91.3918H93.0403V19.9629V9.36314H91.6373H90.2344V17.5779C90.2344 22.4892 90.1642 25.7927 90.0765 25.7927C89.9888 25.7927 88.1124 23.2665 85.9028 20.1926C83.7106 17.1187 81.0801 13.444 80.0629 12.0307L78.2041 9.45147L76.3276 9.39847L74.4512 9.34548V19.9629Z" fill="#066DCA"/>
<path d="M104.492 9.66348C104.545 9.8401 104.913 10.7234 105.334 11.6244L106.087 13.2674L105.755 13.9034C105.176 14.9987 103.422 16.73 101.283 18.3377C98.7923 20.2279 97.7751 21.2526 97.1267 22.5599C96.7058 23.4431 96.6356 23.7965 96.6356 25.0861C96.6356 26.3758 96.7058 26.7291 97.1267 27.5947C97.723 28.8314 98.8805 29.8914 100.212 30.4037C101.704 31.0043 104.299 30.969 105.807 30.3506C107.561 29.6263 108.771 28.8137 110.402 27.2591L111.927 25.8105L113.032 28.1778L114.137 30.5627H115.785H117.417L117.171 29.9797C116.943 29.4497 116.452 28.4074 114.26 23.7611C113.751 22.6835 112.769 20.5812 112.067 19.0796C111.367 17.5779 110.226 15.14 109.525 13.6914C108.841 12.2251 108.105 10.6705 107.911 10.1935L107.561 9.36315H105.982C104.562 9.36315 104.405 9.39848 104.492 9.66348ZM108.035 17.3484C108.315 17.9666 108.999 19.4506 109.56 20.6519L110.577 22.8425L110.121 23.5316C109.262 24.7681 107.175 26.6054 105.912 27.2238C104.913 27.7184 104.457 27.8244 103.299 27.8774C102.09 27.9127 101.791 27.8598 101.213 27.5241C99.7394 26.6761 99.3356 24.7328 100.283 23.1075C100.757 22.2949 101.23 21.8532 104.632 19.0443C105.544 18.3022 106.526 17.3837 106.807 16.9773C107.105 16.5886 107.385 16.253 107.438 16.253C107.49 16.253 107.754 16.7477 108.035 17.3484Z" fill="#066DCA"/>
</g>
</g>
<defs>
<clipPath id="clip0_4_2">
<rect width="124" height="40" fill="white"/>
</clipPath>
</defs>
</svg>
