<svg width="36" height="32" viewBox="0 0 36 32" fill="none" xmlns="http://www.w3.org/2000/svg">
<path d="M10.0004 20.7492C6.75878 20.7492 4.12181 18.114 4.12181 14.8744C4.12181 11.6353 6.75878 9 10.0004 9C13.2421 9 15.8786 11.6353 15.8786 14.8744C15.8786 18.114 13.2421 20.7492 10.0004 20.7492ZM10.0004 9.88462C7.24718 9.88462 5.00699 12.1229 5.00699 14.8744C5.00699 17.6259 7.24718 19.8646 10.0004 19.8646C12.7537 19.8646 14.9934 17.6259 14.9934 14.8744C14.9934 12.1229 12.7537 9.88462 10.0004 9.88462ZM18.2273 32H1.7727C1.2441 32 0.745315 31.7668 0.404293 31.3616C0.0766706 30.9711 -0.061206 30.4657 0.0252361 29.9733C0.839536 25.349 5.0312 21.9928 9.99307 21.9928C14.9606 21.9928 19.1583 25.349 19.9743 29.9725C20.0616 30.4649 19.9242 30.9703 19.5965 31.3607C19.256 31.7668 18.7563 32 18.2273 32ZM9.99307 22.8774C5.46212 22.8774 1.63655 25.926 0.897454 30.1271C0.855527 30.3647 0.921227 30.6005 1.08244 30.7923C1.25447 30.9979 1.50645 31.1154 1.7727 31.1154H18.2273C18.4944 31.1154 18.7459 30.9979 18.918 30.7923C19.0796 30.6005 19.1444 30.3638 19.1029 30.1262C18.3613 25.926 14.5301 22.8774 9.99307 22.8774Z" fill="white"/>
<path d="M20.0004 4C23.2421 4 25.8786 6.63527 25.8786 9.8744C25.8786 13.114 23.2421 15.7492 20.0004 15.7492C19.0555 15.7492 18.162 15.5253 17.3702 15.1278C17.1481 15.0163 17.0829 14.7365 17.2158 14.5264C17.3443 14.3233 17.6105 14.2616 17.8268 14.3665C18.4842 14.6856 19.2218 14.8646 20.0004 14.8646C22.7537 14.8646 24.9934 12.6259 24.9934 9.8744C24.9934 7.12293 22.7537 4.88462 20.0004 4.88462C18.1794 4.88462 16.5828 5.86383 15.7104 7.32307C15.5848 7.53314 15.3213 7.62651 15.1012 7.51956C14.8817 7.41292 14.7886 7.14768 14.9111 6.93663C15.929 5.18238 17.8291 4 20.0004 4Z" fill="white"/>
<path d="M19.9931 16.9928C24.9606 16.9928 29.1583 20.349 29.9743 24.9725C30.0616 25.4649 29.9242 25.9703 29.5966 26.3607C29.256 26.7668 28.7563 27 28.2273 27H20.8815C20.6623 27 20.4762 26.8395 20.444 26.6226C20.4043 26.3554 20.6114 26.1154 20.8815 26.1154H28.2273C28.4944 26.1154 28.746 25.9979 28.918 25.7923C29.0796 25.6005 29.1445 25.3638 29.103 25.1262C28.3613 20.926 24.5301 17.8774 19.9931 17.8774C19.2809 17.8774 18.5862 17.9527 17.9181 18.096C17.684 18.1462 17.4464 18.0127 17.3789 17.783C17.3085 17.5437 17.4495 17.2926 17.6932 17.2394C18.4333 17.0778 19.2034 16.9928 19.9931 16.9928Z" fill="white"/>
<rect x="32.1429" y="10" width="9" height="1.28571" rx="0.642857" transform="rotate(90 32.1429 10)" fill="white"/>
<rect x="36" y="15.1428" width="9" height="1.28571" rx="0.642857" transform="rotate(-180 36 15.1428)" fill="white"/>
</svg>
