<svg width="34" height="34" viewBox="0 0 34 34" fill="none" xmlns="http://www.w3.org/2000/svg">
<g clip-path="url(#clip0_4019_182)">
<path d="M5.99929 33.0708C5.76732 33.0708 5.53595 33.0095 5.32502 32.8881C4.90255 32.6441 4.65075 32.2079 4.65075 31.7199V26.5577C1.649 23.9412 0 20.4845 0 16.7929C0 9.14819 7.17715 2.92896 15.9997 2.92896C24.8223 2.92896 32 9.14819 32 16.7929C32 24.4376 24.8223 30.6574 15.9997 30.6574C14.4697 30.6574 12.9577 30.4699 11.501 30.1009L6.67415 32.8869C6.46262 33.0095 6.23126 33.0708 5.99929 33.0708ZM15.9997 4.1597C7.85623 4.1597 1.23074 9.82666 1.23074 16.7929C1.23074 20.2045 2.80464 23.4039 5.66155 25.8029C5.80097 25.9195 5.8815 26.0926 5.8815 26.2741V31.7199L6.05878 31.822L11.1044 28.9098C11.2456 28.8257 11.4132 28.8041 11.5719 28.8485C13.0004 29.2319 14.4901 29.4266 15.9997 29.4266C24.1432 29.4266 30.7693 23.7597 30.7693 16.7929C30.7693 9.82666 24.1432 4.1597 15.9997 4.1597ZM7.45285 16.0499C7.04243 16.0499 6.70971 16.3827 6.70971 16.7931C6.70971 17.2035 7.04243 17.5362 7.45285 17.5362C7.86327 17.5362 8.19598 17.2035 8.19598 16.7931C8.19598 16.3827 7.86327 16.0499 7.45285 16.0499ZM13.1508 16.0499C12.7404 16.0499 12.4077 16.3827 12.4077 16.7931C12.4077 17.2035 12.7404 17.5362 13.1508 17.5362C13.5612 17.5362 13.894 17.2035 13.894 16.7931C13.894 16.3827 13.5612 16.0499 13.1508 16.0499ZM18.8488 16.0499C18.4384 16.0499 18.1056 16.3827 18.1056 16.7931C18.1056 17.2035 18.4384 17.5362 18.8488 17.5362C19.2592 17.5362 19.5919 17.2035 19.5919 16.7931C19.5919 16.3827 19.2592 16.0499 18.8488 16.0499ZM24.5467 16.0499C24.1363 16.0499 23.8036 16.3827 23.8036 16.7931C23.8036 17.2035 24.1363 17.5362 24.5467 17.5362C24.9572 17.5362 25.2899 17.2035 25.2899 16.7931C25.2899 16.3827 24.9572 16.0499 24.5467 16.0499Z" fill="white"/>
</g>
<circle cx="29" cy="5" r="5" fill="#E4201F"/>
<defs>
<clipPath id="clip0_4019_182">
<rect width="32" height="32" fill="white" transform="translate(0 2)"/>
</clipPath>
</defs>
</svg>
