<svg width="192" height="62" viewBox="0 0 192 62" fill="none" xmlns="http://www.w3.org/2000/svg">
<g clip-path="url(#clip0_27_1126)">
<mask id="mask0_27_1126" style="mask-type:luminance" maskUnits="userSpaceOnUse" x="0" y="0" width="192" height="62">
<path d="M191.858 0H0.141479V62H191.858V0Z" fill="white"/>
</mask>
<g mask="url(#mask0_27_1126)">
<path d="M0.141479 31V62H96H191.859V31V0H96H0.141479V31ZM191.027 31V61.1622H96H0.972623V31V0.837838H96H191.027V31Z" fill="#333333"/>
<path d="M20.3222 14.5129C15.1629 15.882 12.3661 18.8941 12.3661 23.1385C12.3661 27.7114 15.3801 30.5865 21.8428 32.2022C23.2819 32.5581 25.2641 32.9689 26.2689 33.1331C28.5226 33.4891 31.6182 34.5297 32.6771 35.2965C34.3335 36.4739 34.7952 38.6918 33.7362 40.2801C32.3784 42.3338 29.9347 43.2647 25.9702 43.2647C21.4354 43.2647 18.6115 41.9504 17.0093 39.1026C15.8146 36.9667 15.8418 36.9668 13.588 36.9668C11.6058 36.9668 11.5515 36.9941 11.5515 37.6239C11.5515 38.8014 12.6376 41.211 13.8867 42.8267C15.353 44.716 17.3623 46.0852 19.9963 47.0162C21.7613 47.646 22.4402 47.7281 25.6715 47.7281C29.6088 47.7555 31.3195 47.3996 33.8992 46.0852C38.4338 43.7851 40.3617 38.8562 38.3251 34.6941C37.4834 32.9141 36.2886 31.7915 34.1436 30.6962C32.0527 29.6281 30.4233 29.1627 25.7801 28.3412C20.9738 27.4923 19.1816 26.8352 18.1227 25.603C17.0365 24.3707 16.8465 23.3575 17.4167 21.9336C17.9869 20.5097 19.073 19.5788 20.838 19.031C25.7529 17.5798 30.7764 18.812 33.1388 22.098L33.9535 23.248H36.3429C37.8365 23.2754 38.7053 23.1659 38.7053 22.9741C38.7053 22.0706 37.049 19.387 35.6098 17.9357C32.8401 15.1701 29.5545 13.9653 24.9654 13.9926C23.2547 13.9926 21.5712 14.1843 20.3222 14.5129Z" fill="#333333"/>
<path d="M44.4691 30.9999V47.4774H46.9625H49.456V40.5513V33.6252L55.9943 33.681C61.9786 33.7927 62.6434 33.681 64.8599 32.3963C68.0735 30.5531 69.5696 28.0396 69.5696 24.3531C69.5696 19.9963 67.9074 17.2035 64.4719 15.6954C62.0339 14.69 60.7041 14.5225 53.1129 14.5225H44.4691V30.9999ZM62.3664 19.6054C64.1394 20.5549 64.4166 21.1693 64.4166 24.1296C64.4166 26.0846 64.0841 27.1459 63.3083 27.9279C61.8122 29.436 60.4825 29.6595 54.7198 29.4918L49.733 29.3243L49.5668 24.1296L49.4005 18.9909H55.274C58.6539 18.9909 61.7014 19.2702 62.3664 19.6054Z" fill="#333333"/>
<path d="M74.9444 30.9999V47.4774H77.4378H79.9313V30.9999V14.5225H77.4378H74.9444V30.9999Z" fill="#333333"/>
<path d="M88.2426 30.9999V47.4774H99.3246H110.406V45.2432V43.009H101.818H93.2295V28.7657V14.5225H90.7362H88.2426V30.9999Z" fill="#333333"/>
<path d="M115.279 30.9423V47.372H117.452H119.624V34.2283C119.624 26.9993 119.733 21.0846 119.841 21.0846C119.95 21.0846 121.443 23.0288 123.154 25.3836C128.503 32.8591 129.481 34.2283 131.463 36.9391C132.495 38.3904 134.64 41.3204 136.161 43.4562L138.985 47.372H141.51H144.062V30.9423V14.5127H141.89H139.718V27.2457C139.718 34.8581 139.609 39.9786 139.473 39.9786C139.338 39.9786 136.432 36.063 133.011 31.2983C129.616 26.5338 125.543 20.8381 123.968 18.6475L121.09 14.6496L118.185 14.5675L115.279 14.4854V30.9423Z" fill="#333333"/>
<path d="M161.794 14.9782C161.876 15.252 162.445 16.6211 163.097 18.0177L164.264 20.5643L163.749 21.5501C162.854 23.2477 160.138 25.9313 156.825 28.4232C152.969 31.353 151.394 32.9413 150.39 34.9677C149.738 36.3367 149.629 36.8843 149.629 38.8833C149.629 40.8822 149.738 41.4299 150.39 42.7717C151.313 44.6885 153.105 46.3314 155.168 47.1256C157.477 48.0565 161.496 48.0017 163.83 47.0433C166.545 45.9207 168.42 44.6611 170.945 42.2514L173.306 40.0061L175.018 43.6753L176.728 47.372H179.281H181.807L181.427 46.4683C181.073 45.6469 180.313 44.0312 176.919 36.8296C176.131 35.1593 174.61 31.9007 173.524 29.5732C172.439 27.2456 170.673 23.4669 169.587 21.2214C168.528 18.9487 167.388 16.539 167.088 15.7997L166.545 14.5127H164.101C161.902 14.5127 161.659 14.5675 161.794 14.9782ZM167.279 26.8898C167.714 27.848 168.772 30.1482 169.641 32.0103L171.216 35.4057L170.51 36.4737C169.18 38.3904 165.948 41.2382 163.993 42.1967C162.445 42.9633 161.739 43.1277 159.947 43.2098C158.074 43.2646 157.612 43.1824 156.716 42.6622C154.435 41.3477 153.81 38.3356 155.276 35.8164C156.01 34.5569 156.743 33.8722 162.011 29.5185C163.423 28.3683 164.944 26.9445 165.378 26.3146C165.839 25.7122 166.274 25.1919 166.356 25.1919C166.437 25.1919 166.845 25.9587 167.279 26.8898Z" fill="#333333"/>
</g>
</g>
<defs>
<clipPath id="clip0_27_1126">
<rect width="192" height="62" fill="white"/>
</clipPath>
</defs>
</svg>
