<svg width="111" height="70" viewBox="0 0 111 70" fill="none" xmlns="http://www.w3.org/2000/svg">
<path d="M62.6913 65.0032C62.6221 63.7177 62.5055 61.9707 62.5519 60.5251H62.4819C62.203 61.9707 61.7842 63.6372 61.4815 64.6821L60.1317 69.5222H57.9667L56.6636 64.762C56.3611 63.6779 55.942 61.9905 55.709 60.5251H55.6396C55.5932 61.9905 55.5001 63.6976 55.4066 65.0433L55.1508 69.7432H52.5209L53.6613 56.2065H56.873L58.1297 61.107C58.5719 62.8144 58.9682 64.3204 59.2471 65.8469H59.2937C59.5267 64.3407 59.8753 62.8144 60.295 61.107L61.5281 56.2065H64.7396L65.6941 69.7432H62.9712L62.6913 65.0032Z" fill="#333333"/>
<path d="M70.8835 56.2066V65.0033C70.8835 66.9915 71.5818 67.594 72.3733 67.594C73.2576 67.594 73.8856 67.0522 73.8856 65.0033V56.2066H76.9348V64.5417C76.9348 68.0158 75.4217 69.9038 72.3966 69.9038C69.1144 69.9038 67.8348 67.9554 67.8348 64.5612V56.2066H70.8835Z" fill="#333333"/>
<path d="M79.2153 67.052C79.8436 67.353 80.9142 67.574 81.7988 67.574C83.2414 67.574 83.9393 66.9315 83.9393 66.0474C83.9393 65.0632 83.2414 64.5813 81.9146 63.838C79.7738 62.7136 78.9587 61.2877 78.9587 60.0625C78.9587 57.8935 80.6346 56.0859 83.9168 56.0859C84.9406 56.0859 85.9182 56.3271 86.3837 56.5681L85.8949 58.8374C85.4524 58.5967 84.7778 58.3754 83.8935 58.3754C82.5901 58.3754 81.9616 59.0583 81.9616 59.7815C81.9616 60.5851 82.4268 61.0064 84.126 61.8902C86.1976 62.9746 86.9658 64.3406 86.9658 65.7664C86.9658 68.2365 84.8478 69.8635 81.7755 69.8635C80.5182 69.8635 79.285 69.5822 78.7734 69.3212L79.2153 67.052Z" fill="#333333"/>
<path d="M91.7827 69.7429H88.734V56.2065H91.7827V69.7429Z" fill="#333333"/>
<path d="M102.023 69.5419C101.581 69.7225 100.719 69.8635 99.6491 69.8635C95.6459 69.8635 93.7375 67.0116 93.7375 63.1757C93.7375 58.0741 97.0187 56.0859 100.068 56.0859C101.139 56.0859 101.883 56.2665 102.186 56.4471L101.674 58.6568C101.325 58.516 100.93 58.3957 100.254 58.3957C98.5315 58.3957 96.9723 59.6805 96.9723 63.035C96.9723 66.2684 98.3924 67.5334 100.254 67.5334C100.766 67.5334 101.348 67.4329 101.721 67.333L102.023 69.5419Z" fill="#333333"/>
<path d="M11.1461 67.8752C11.3352 67.9161 11.5487 67.9161 11.8325 67.9161C13.0871 67.9161 14.1284 67.2632 14.1284 65.8541C14.1284 64.4854 13.0399 63.7707 11.8089 63.7504H11.1461V67.8752ZM11.1461 61.7696H11.8089C12.9213 61.7696 13.7732 60.9525 13.7732 59.8297C13.7732 58.8287 13.2287 58.0526 11.9508 58.0526C11.6198 58.0526 11.3352 58.0729 11.1461 58.1341V61.7696ZM8.04578 56.3169C8.99239 56.133 10.2231 56.0509 11.5726 56.0509C13.0635 56.0509 14.5071 56.2145 15.619 57.0313C16.4712 57.6442 16.826 58.5628 16.826 59.5229C16.826 60.7483 16.0927 61.9326 14.5071 62.5249V62.6067C16.3529 63.056 17.3467 64.3836 17.3467 65.8947C17.3467 67.0381 16.921 67.9161 16.1638 68.5902C15.2169 69.4888 13.6074 69.9792 10.9328 69.9792C9.7499 69.9792 8.75581 69.918 8.04578 69.8363V56.3169Z" fill="#333333"/>
<path d="M27.8065 67.1404C28.4455 67.447 29.534 67.6718 30.4334 67.6718C31.9007 67.6718 32.6107 67.0183 32.6107 66.1194C32.6107 65.119 31.9007 64.6286 30.552 63.8733C28.3744 62.7293 27.5463 61.2796 27.5463 60.0338C27.5463 57.828 29.2499 55.9899 32.5871 55.9899C33.6287 55.9899 34.6228 56.235 35.0962 56.4801L34.5989 58.7881C34.1493 58.5427 33.4629 58.3179 32.5635 58.3179C31.2381 58.3179 30.5992 59.0123 30.5992 59.7476C30.5992 60.5641 31.0726 60.9933 32.8003 61.8919C34.9065 62.9947 35.6877 64.3837 35.6877 65.8334C35.6877 68.3456 33.534 69.9998 30.4098 69.9998C29.1322 69.9998 27.8776 69.7135 27.3567 69.4481L27.8065 67.1404Z" fill="#333333"/>
<path d="M39.214 58.5837H36.3975V56.1127L45.1544 56.1124V58.5837H42.3146V69.8769L39.214 69.8774V58.5837Z" fill="#333333"/>
<path d="M25.2647 63.8622H21.6987V67.499H25.728V69.7773H18.6648V56.3085H25.4506V58.5865H21.6987V61.6843H25.2647V63.8622Z" fill="#333333"/>
<path d="M14.0381 51.324H18.9784V7.13586H14.0381V51.324Z" fill="#333333"/>
<path d="M20.0763 51.324H25.0166V3.56787H20.0763V51.324Z" fill="#333333"/>
<path d="M31.1004 51.324V0.373981C29.1243 0.171703 27.6422 0.0432549 26.1602 -0.000110626V51.324H31.1004Z" fill="#333333"/>
<path d="M32.1526 50.9634C33.7994 50.7391 35.995 50.4328 37.0929 50.061V24.9986C37.0929 24.9904 37.0929 24.9898 37.0929 24.9986V24.767C37.0929 24.7738 37.0929 24.7738 37.0929 24.767V1.56189C35.995 1.10409 33.7994 0.724236 32.1526 0.442638V50.9634Z" fill="#333333"/>
<path d="M38.1907 23.4106V49.2153C44.5033 44.2646 44.7272 37.7761 44.7272 34.9654C44.7272 30.5065 42.3076 26.4277 38.1907 23.4106Z" fill="#333333"/>
<path d="M43.452 10.5378C43.452 7.77567 41.4844 4.81671 38.1909 2.31857V21.9216C43.4057 18.6344 43.452 13.9359 43.452 10.5378Z" fill="#333333"/>
<path d="M8.64567 -0.000110626H12.9404V51.324H8.64567C8.108 51.324 8.00014 50.477 8.00014 50.2047V0.444241C8.00014 0.103912 7.97379 -0.000110626 8.64567 -0.000110626Z" fill="#333333"/>
<path d="M77.9874 51.324H73.0471V13.4484H77.9874V51.324Z" fill="#333333"/>
<path d="M71.9493 51.324H67.009V7.13586H71.9493V51.324Z" fill="#333333"/>
<path d="M65.9111 51.324H60.9708V-0.000110626H65.9111V51.324Z" fill="#333333"/>
<path d="M56.1553 -0.000110626H59.8731V51.324H56.1553C55.7024 51.324 54.9329 50.491 54.9329 50.219V0.457966C54.9329 0.117908 55.5891 -0.000110626 56.1553 -0.000110626Z" fill="#333333"/>
<path d="M79.0852 51.324H84.0255V13.4484H79.0852V51.324Z" fill="#333333"/>
<path d="M85.1234 51.324H90.0637V7.13586H85.1234V51.324Z" fill="#333333"/>
<path d="M91.1615 51.324H96.1018V-0.000110626H91.1615V51.324Z" fill="#333333"/>
<path d="M101.009 -0.000110626H97.1997V51.324H101.009C101.462 51.324 102.14 50.491 102.14 50.219V0.457966C102.14 0.117908 101.575 -0.000110626 101.009 -0.000110626Z" fill="#333333"/>
</svg>
